<svg xmlns="http://www.w3.org/2000/svg" id="Layer_1" data-name="Layer 1" viewBox="0 0 500 500"><defs><style>.cls-1{fill:#faae3b}.cls-2{fill:#f8e6c5}.cls-3{fill:#88a451}.cls-4{opacity:.15}.cls-5{fill:none;stroke:#000;stroke-linecap:round;stroke-linejoin:round;stroke-width:20px}</style></defs><path d="M403.7 265.22h37.4V308h-37.4z" class="cls-1"/><path d="M441.1 246.01h32.59V308H441.1z" class="cls-2"/><path d="M96.3 173.87h307.4v266.85a48.54 48.54 0 0 1-48.54 48.54H144.84a48.54 48.54 0 0 1-48.54-48.54V173.87Z" class="cls-3"/><path d="M356.51 173.87v266.85A48.55 48.55 0 0 1 308 489.27h47.19a48.55 48.55 0 0 0 48.54-48.55V173.87Z" class="cls-4"/><path d="M403.7 308v132.72a48.55 48.55 0 0 1-48.54 48.55h79.17a48.55 48.55 0 0 0 48.54-48.55V308Z" class="cls-3"/><path d="M442.42 308v132.72a48.55 48.55 0 0 1-48.54 48.55h40.45a48.55 48.55 0 0 0 48.54-48.55V308Z" class="cls-4"/><path d="M96.3 440.72V308H17.13v132.72a48.55 48.55 0 0 0 48.54 48.55h79.17a48.55 48.55 0 0 1-48.54-48.55Z" class="cls-3"/><rect width="424.74" height="123.37" x="37.63" y="50.49" class="cls-1" rx="48.54" ry="48.54"/><path d="M130.89 50.49h35.96v123.37h-35.96zm238.22 123.38h-35.96V50.5h35.96z" class="cls-2"/><path d="M231.33 10.73h37.34a39.76 39.76 0 0 1 39.76 39.76v0h0-116.86 0v0a39.76 39.76 0 0 1 39.76-39.76Z" class="cls-5"/><path d="M164.04 281.84H200v119.23h-35.96zm135.96 0h35.96v119.23H300z" style="fill:#b3814b"/><path d="M49.77 246h21.54a25 25 0 0 1 25 25v37H24.79v-37a25 25 0 0 1 24.98-25Z" class="cls-2"/><path d="M96.3 173.87v119a48.54 48.54 0 0 0 48.54 48.54H164v-59.57h36v59.61h100v-59.61h36v59.61h19.2a48.54 48.54 0 0 0 48.54-48.54v-119Z" class="cls-3"/><path d="M363.25 173.87v119A48.51 48.51 0 0 1 336 336.5v4.95h19.2a48.54 48.54 0 0 0 48.54-48.54v-119Z" class="cls-4"/><path d="M413.83 126.67H86.17a48.53 48.53 0 0 1-47.38-38.09A48.66 48.66 0 0 0 37.63 99v26.29a48.54 48.54 0 0 0 48.54 48.54h327.66a48.54 48.54 0 0 0 48.54-48.54V99a48.66 48.66 0 0 0-1.16-10.46 48.53 48.53 0 0 1-47.38 38.13ZM96.3 440.72v-193.4H55.85v193.4a48.55 48.55 0 0 0 48.54 48.55h40.45a48.55 48.55 0 0 1-48.54-48.55Z" style="opacity:.1"/><path d="M403.7 265.22h37.4V308h-37.4zm37.4-19.21h32.59V308H441.1zM96.3 173.87h307.4v266.85a48.54 48.54 0 0 1-48.54 48.54H144.84a48.54 48.54 0 0 1-48.54-48.54V173.87h0Z" class="cls-5"/><path d="M403.7 308v132.72a48.55 48.55 0 0 1-48.54 48.55h79.17a48.55 48.55 0 0 0 48.54-48.55V308ZM96.3 440.72V308H17.13v132.72a48.55 48.55 0 0 0 48.54 48.55h79.17a48.55 48.55 0 0 1-48.54-48.55Z" class="cls-5"/><rect width="424.74" height="123.37" x="37.63" y="50.49" class="cls-5" rx="48.54" ry="48.54"/><path d="M130.89 50.49h35.96v123.37h-35.96zm238.22 123.38h-35.96V50.5h35.96zM164.04 281.84H200v119.23h-35.96zm135.96 0h35.96v119.23H300zM49.77 246h21.54a25 25 0 0 1 25 25v37h0-71.52 0v-37a25 25 0 0 1 24.98-25Z" class="cls-5"/><path d="M96.3 173.87v119a48.54 48.54 0 0 0 48.54 48.54H164v-59.57h36v59.61h100v-59.61h36v59.61h19.2a48.54 48.54 0 0 0 48.54-48.54v-119Z" class="cls-5"/></svg>