<svg xmlns="http://www.w3.org/2000/svg" xml:space="preserve" style="enable-background:new 0 0 99 99" viewBox="0 0 99 99"><path d="M43.1 78.4V62.9c0-4.3-2.8-7.2-7.2-7.2h-8.4c-1.1 0-1.9-.3-2.5-1.2-.6-1-.3-1.9.3-2.8 5-7.7 12-12.6 20.7-15.3 1.7-.5 3.2-1.1 4.4-2.5.8-.9 1.9-1.3 3.1-1.3h10.8c1.4 0 2.5.5 3.4 1.5.9 1.1 2.1 1.7 3.4 2 7.1 2.1 13.3 5.7 18.3 11.3 4.6 5.3 7.3 11.5 8.6 18.3.7 3.7 1 7.5.9 11.3-.2 4.8-2.2 8.8-5.8 11.9-3.4 3-7.5 4.7-11.8 5.9-7 2-14.3 2.6-21.5 2.6-5 0-10-.1-14.9-.9-1.3-.2-1.7-.7-1.7-2-.1-5.4-.1-10.8-.1-16.1zm8.3-67.9c.3-2.9.7-5.5 3.1-7.4 1.4-1.1 3-1.6 4.7-1.6 4.2.1 6.4 2.7 7.4 8.8 1.4-.3 2.9-.9 4.4-1.2 1.3-.2 2.8-.3 4.1 0 2.2.5 3.6 2 4.1 4.2.5 2.2-.1 4.2-1.9 5.7-.9.8-2.1 1.4-3.2 1.9-3 1.3-5.6 3-7.3 5.9-.6 1-1.4 1.4-2.5 1.4H53.7c-1.1 0-2-.4-2.5-1.4C49.5 24 47 22.3 44 21c-1-.4-2-.9-2.9-1.6-2.2-1.7-3-4.4-2-6.9.9-2.4 3.3-4 6-3.7 1.8.2 3.6.8 5.4 1.3.3.1.5.3.9.4z"/><path d="M3.1 70C.9 70 0 69.2 0 66.9v-4.1C0 61 1 60 2.7 60h33.4c1.7 0 2.7.9 2.7 2.7v4.6c0 1.7-1 2.7-2.8 2.7H3.1zm32.5 17.4c2.4 0 3.2.8 3.2 3.2v4c0 1.8-1 2.8-2.8 2.8H2.8c-1.8 0-2.8-1-2.8-2.8v-4.4c0-1.8.9-2.8 2.8-2.8 5.5-.1 27.4 0 32.8 0zM3.1 83C1 83 0 82 0 79.9V77c0-1.6 1-2.5 2.5-2.6h32.9c2.5 0 3.4.9 3.4 3.4v2.4c0 1.9-1 2.9-2.9 2.9C30.4 83 8.6 83 3.1 83z"/></svg>