<svg fill="#fff" xmlns="http://www.w3.org/2000/svg" x="0" y="0" viewBox="0 0 300 300" style="enable-background:new 0 0 300 300" xml:space="preserve"><path d="m152 281 28.8-3.8v.1c.8 2.6 3.5 4.1 6.1 3.3l.5-.2c2.6-.8 4.1-3.5 3.3-6.1v-.1l26.5-12.1c.6 1.1 1.8 1.9 3.2 1.9 2 0 3.6-1.6 3.6-3.6 0-.9-.3-1.7-.9-2.3l24.4-22.6c.7.6 1.6 1 2.5 1 2 0 3.6-1.6 3.6-3.6 0-1.5-.9-2.7-2.1-3.3l26.1-65c.3.1.8.2 1.2.2 2 0 3.6-1.6 3.6-3.6s-1.6-3.6-3.6-3.6c-.2 0-.3 0-.6.1l-15-68.3c1.6-.3 2.9-1.8 2.9-3.6 0-2-1.6-3.6-3.6-3.6-1 0-1.9.4-2.6 1l-51.1-48c.5-.6.9-1.5.9-2.3 0-2-1.6-3.6-3.6-3.6-1.6 0-2.9 1-3.4 2.3l-31.6-11c.1-.3.2-.8.2-1.1 0-2-1.6-3.6-3.6-3.6s-3.6 1.6-3.6 3.6l-30.7 1.3c-.2-1.8-1.7-3.3-3.6-3.3-2 0-3.6 1.6-3.6 3.6 0 .5.1 1 .3 1.4L64.9 51.3c-.9-1.9-2.9-3.2-5.1-3.2-3.1 0-5.6 2.5-5.6 5.6 0 2.1 1.1 3.8 2.7 4.8L44.7 79.3c-.4-.2-1-.3-1.5-.3-2 0-3.6 1.6-3.6 3.6 0 1.2.6 2.3 1.5 2.9l-18.7 32.2c-.4-.2-1-.3-1.6-.3-2 0-3.6 1.6-3.6 3.6s1.6 3.6 3.6 3.6l4.6 69.5c-1.8.3-3.2 1.7-3.2 3.6 0 2 1.6 3.6 3.6 3.6.8 0 1.5-.3 2.1-.7L72.2 256c-.6.6-1 1.5-1 2.4 0 2 1.6 3.6 3.6 3.6 1.6 0 2.9-1 3.4-2.3l66.3 20.5v.5c0 2 1.6 3.6 3.6 3.6 2.3.2 3.9-1.3 3.9-3.3zm0-.4c-.2-1.9-1.7-3.4-3.6-3.4-.9 0-1.7.3-2.3.9l-15.5-18.5c.3-.3.6-.8.8-1.2l49.4 16.5c-.1.3-.1.7-.1 1s0 .5.1.9l-28.8 3.8zm-77-25.7c-.5 0-1 .1-1.5.3l-8.4-23.6c.8-.3 1.4-1 1.8-1.6l57.6 25.8c-.2.3-.3.8-.3 1.2l-45.6 1.2c-.1-1.9-1.7-3.3-3.6-3.3zm-45.5-57c0-1.5-1-2.8-2.3-3.4l11.4-33c.5.2 1 .3 1.6.3.5 0 1-.1 1.5-.2l20.6 63.2c-.5.2-1 .5-1.4 1L28.8 200c.4-.6.7-1.3.7-2.1zM202.3 32.7c0 2 1.6 3.6 3.6 3.6.5 0 1.1-.2 1.6-.3l14.4 26.1c-.9.5-1.6 1.2-2.1 2l-86.9-42c.1-.2.2-.4.2-.6l69.2 10.8v.4zm56.5 52.9c0 1.7 1.2 3.2 2.9 3.6l-2.5 23.8h-.3c-1 0-2.1.3-2.9.8l-28-42.4c.7-.5 1.2-1.2 1.6-2L259 84.2c-.1.5-.2.9-.2 1.4zm16.5 75.6c0 1.2.6 2.3 1.5 2.9L257 193.7c-.7-.4-1.5-.7-2.3-.8l4.2-68.7h.2c.8 0 1.5-.2 2.2-.4l16.1 34.3c-1.3.5-2.1 1.7-2.1 3.1zm-28.9 71.7c0 .7.2 1.3.5 1.8l-56.8 38.4c-.2-.3-.3-.5-.6-.8l61-69.6c.8.6 1.6 1 2.7 1.2l-2.9 25.3h-.2c-2.1.1-3.7 1.6-3.7 3.7zm-121.7 22.4-57.6-25.8c.2-.4.3-.9.3-1.3 0-1-.4-1.9-1-2.6l43.6-48.9c1 .8 2.3 1.3 3.6 1.3.3 0 .5 0 .7-.1l12.9 75.6c-1.1.2-2 .9-2.5 1.8zm-78.9-97.8 62.2 13.8c-.1.3-.1.7-.1 1 0 1.6.7 3 1.7 4l-43.6 49c-.6-.5-1.4-.8-2.3-.8-.3 0-.6.1-1 .1l-20.5-63.1c1.8-.7 3.2-2.1 3.6-4zm1-74.9v-.3l60.5-8.5c.5 2.8 2.9 4.9 5.8 5l.2 87.9c-1.1.1-2.2.4-3 1L45.7 85.4c.7-.7 1.1-1.7 1.1-2.8zM186.6 271l7.7-75.4h.2c1.8 0 3.3-1.3 3.6-3l50.4 5.5v.4c0 1.6.7 3 1.7 4.1l-61 69.6c-.7-.7-1.7-1.1-2.6-1.2zM113.5 78.8c2.9-.1 5.2-2.2 5.7-4.9L183 85.2c0 .3-.1.5-.1.8 0 1.6.7 3 1.7 4.1L116.9 168c-1-.8-2.1-1.2-3.3-1.2l-.1-88zm139.8 39.7c0 1.6.7 3 1.7 4.1L196.7 189c-.6-.5-1.4-.8-2.3-.8l-5.3-96.6c2-.2 3.6-1.4 4.5-3l60.1 27.8c-.3.6-.4 1.3-.4 2.1zm-134.2 53.8c0-1.6-.7-3-1.7-4.1l67.8-77.9c1 .8 2.2 1.2 3.6 1.2h.1l5.3 96.6c-1.5.2-2.7 1.2-3.1 2.6l-72-17.3v-1.1zm-.2 1.6 72 17.3c0 .2-.1.4-.1.7 0 1 .3 1.7.9 2.4l-61.2 60c-.7-.6-1.5-1-2.4-1h-.4l-12.9-75.5c1.9-.4 3.5-2 4.1-3.9zm129.6 23.7-50.4-5.5v-.2c0-1-.4-1.9-1.1-2.6l58.4-66.4c.9.7 1.8 1.1 2.9 1.2l-4.2 68.7h-.2c-2.7 0-5.1 2-5.4 4.8zm5.4-81.6-60.1-27.8c.3-.7.4-1.4.4-2.2 0-.9-.2-1.6-.5-2.4l26.1-13.9c1 1.6 2.8 2.8 4.9 2.8 1.1 0 2.2-.3 3-1l27.9 42.3c-.7.7-1.3 1.3-1.7 2.2zm-34.8-49.1c0 .9.2 1.6.5 2.4l-26.1 13.9c-1-1.6-2.8-2.8-4.9-2.8-1.4 0-2.6.5-3.6 1.3l-52.9-58.5c.3-.3.4-.5.6-.8l86.9 41.9c-.3.9-.5 1.7-.5 2.6zm-87.3-43.4L184.7 82c-.8.8-1.3 1.7-1.6 2.9l-63.8-11.3c0-.3.1-.6.1-.9 0-2.7-1.7-4.9-4.1-5.7l13.4-42.8c.3.1.6.1.9.1.8 0 1.6-.2 2.2-.8zm-.1 233.5c0-1-.3-1.7-.9-2.4l61.2-60c.5.4 1.1.8 1.9.9l-7.7 75.5c-.5 0-1 .1-1.5.2l-.4.1c-1.6.4-2.8 1.7-3.3 3.2L131.7 258c-.1-.3 0-.6 0-1zm-3.4-232.8L114.9 67c-.5-.2-1-.3-1.6-.3-3.4 0-6.1 2.8-6.1 6.1v.6l-60.5 8.5c-.1-.5-.3-1-.6-1.4L126.6 23c.5.5 1 .9 1.7 1.2zm-83 61.4 64.5 82.4c-.9.7-1.5 1.7-1.8 2.9l-62.2-13.8c.1-.3.1-.7.1-1 0-2.9-2.3-5.4-5.2-5.6L43 86.2h.1c.9.1 1.6-.1 2.2-.6zm145.2 188.3c-.1-.2-.1-.3-.2-.4l56.9-38.4.1.1-24.4 22.6c-.7-.6-1.6-1-2.5-1-2 0-3.6 1.6-3.6 3.6 0 .4.1.9.3 1.3l-26.6 12.2zm60.8-44.5c-.2-.1-.3-.1-.5-.2l2.9-25.3h.4c3.1 0 5.6-2.5 5.6-5.6 0-1.8-1-3.5-2.3-4.5l19.8-29.6c.1.1.2.1.3.2l-26.2 65zm26.7-71.8c-.1 0-.3.1-.3.1l-16.1-34.3c1.8-1 3-2.9 3-5 0-2.9-2.1-5.1-4.9-5.6l2.4-23.7h.7l15.2 68.5zm-18.8-73.8L229.8 69c.3-.6.4-1.3.4-2.1 0-3.1-2.5-5.6-5.6-5.6-.9 0-1.6.2-2.3.5l-14.4-26.1c.2-.1.4-.3.6-.4l51.2 48-.5.5zm-56.8-52.2c0 .1 0 .2-.1.3L133.1 21v-.3l30.7-1.3c.2 1.8 1.7 3.3 3.6 3.3 1.5 0 2.8-.9 3.3-2.2l31.7 11.1zM57.2 58.7c.8.3 1.6.6 2.5.6 3.1 0 5.6-2.5 5.6-5.6 0-.7-.2-1.4-.3-2l61.3-29.2c0 .1.1.1.1.2L45.9 80.2c-.3-.3-.5-.5-.9-.7l12.2-20.8zM41.4 85.8c.4.3.9.3 1.3.4l-2.3 64.3c-1 0-1.8.3-2.5.6L23 124c1-.7 1.6-1.7 1.6-3s-.7-2.4-1.7-3.1l18.5-32.1zm-20.2 38.9c.4-.1.9-.2 1.2-.3l14.9 27.1c-1.6 1-2.7 2.8-2.7 4.9 0 2.4 1.5 4.4 3.6 5.3l-11.4 33c-.3-.1-.7-.2-1-.2l-4.6-69.8zm7.3 75.6 32.3 25.8c-.4.6-.7 1.3-.7 2.1 0 2 1.6 3.6 3.6 3.6.3 0 .7-.1 1-.2l8.4 23.7c-.2.1-.3.3-.5.4l-44.4-55.2c.2 0 .2-.1.3-.2zm50.1 59.2c.1-.3.1-.6.2-1l45.6-1.2c.2 1.9 1.7 3.4 3.6 3.4.9 0 1.6-.3 2.3-.8l15.5 18.5c-.4.4-.7 1-.9 1.6l-66.3-20.5z"/><path d="m295.8 147.8-4.2-32h.1c2.9-.9 4.5-3.8 3.7-6.8l-.2-.5c-.9-2.9-3.9-4.5-6.8-3.6h-.1L275 75.4c1.3-.7 2.2-2.1 2.2-3.6 0-2.3-1.8-4.1-4.1-4.1-1 0-1.9.3-2.6 1l-25.2-27.2c.7-.7 1.1-1.7 1.1-2.9 0-2.3-1.8-4.1-4.1-4.1-1.6 0-3 1-3.6 2.3L166.3 7.6c.2-.4.3-.9.3-1.3 0-2.3-1.8-4.1-4.1-4.1s-4.1 1.8-4.1 4.1c0 .2 0 .4.1.6L82.4 23.5c-.4-1.8-2-3.1-4-3.1-2.3 0-4.1 1.8-4.1 4.1 0 1.1.4 2.2 1.2 2.9L21.9 84.3c-.7-.6-1.6-1-2.6-1-2.3 0-4.1 1.8-4.1 4.1 0 1.7 1 3.1 2.5 3.7L5.4 126.2c-.4-.1-.8-.2-1.3-.2-2.3 0-4.1 1.8-4.1 4.1s1.8 4 4 4.1l1.4 34.3c-2.1.2-3.6 1.9-3.6 4.1 0 2.3 1.8 4.1 4.1 4.1.5 0 1-.1 1.6-.3l32.4 68.2c-2.2 1-3.6 3.2-3.6 5.7 0 3.5 2.8 6.2 6.2 6.2 2.3 0 4.2-1.2 5.4-3l23 13.5c-.3.5-.3 1-.3 1.6 0 2.3 1.8 4.1 4.1 4.1 1.3 0 2.5-.7 3.3-1.6l35.8 20.9c-.3.5-.3 1.1-.3 1.7 0 2.3 1.8 4.1 4.1 4.1s4.1-1.8 4.1-4.1l77.5-4.9c.3 2 2 3.6 4.1 3.6 2.3 0 4.1-1.8 4.1-4.1 0-.9-.3-1.6-.7-2.3l61.7-49.3c.7.6 1.6 1 2.7 1 2.3 0 4.1-1.8 4.1-4.1 0-1.7-1-3.1-2.5-3.7l23-73.9c.2 0 .3.1.6.1 2.3 0 4.1-1.8 4.1-4.1-.7-2.3-2.4-4.1-4.6-4.2zm-.4 0c-2.1.2-3.7 1.9-3.7 4.1 0 1 .3 1.9 1 2.6L272 171.7c-.3-.3-.9-.7-1.4-.9l18.5-55c.3.1.8.2 1.2.2.3 0 .6 0 1-.1l4.1 31.9zm-28.9 85.8c0 .6.1 1.1.3 1.6l-26.3 9.3c-.3-.9-1-1.6-1.9-2l28.9-64.1c.4.2.9.3 1.4.3l1.2 50.8c-1.9.2-3.6 1.9-3.6 4.1zm-63.6 50.6c-1.6 0-3.1 1-3.7 2.4l-36.7-12.8c.2-.6.3-1.2.3-1.8s-.1-1.1-.3-1.6l70.5-22.7c.3.6.6 1.1 1 1.6L205.3 285c-.6-.5-1.5-.8-2.4-.8zM19.3 91.4c2.3 0 4.1-1.8 4.1-4.1 0-.6-.2-1.2-.4-1.7l29.1-16c.5 1 1.3 1.7 2.3 2.3l-47 96.8c-.3-.1-.4-.2-.7-.2l12.2-77.1h.4zm59.1-62.9c2 0 3.6-1.4 4-3.2l26.5 2.8v.4c0 1.2.3 2.3.9 3.2l-47.3 31c-.6-.8-1.3-1.4-2.3-1.8l16.7-32.7c.4.2.9.3 1.5.3zm84.1-18.2c1.3 0 2.5-.6 3.2-1.6l32.9 22.1c-.5.8-.8 1.6-.9 2.7l-76.5-4.8v-.2c0-.9-.2-1.6-.5-2.4l38.2-17.9c.8 1.2 2.1 2.1 3.6 2.1zm79.9 32.3c.8 0 1.5-.2 2.1-.6l42.7 63.4c-.3.2-.6.4-.9.7L208.8 38c.7-.9 1.1-1.9 1.3-2.9l28.2 3.3v.3c0 2.1 1.9 3.9 4.1 3.9zm24.7 135.6-28.9 64.1c-.4-.2-1-.3-1.5-.3-1.1 0-2.2.4-2.9 1.2l-54.5-48.7c.9-1 1.5-2.4 1.5-4 0-.3 0-.5-.1-.8l84.2-14.2c.5 1.2 1.2 2.2 2.2 2.7zm-109 87.8 15.4-69.2c.3.1.8.1 1.1.1 1.7 0 3.4-.7 4.5-1.9l54.5 48.7c-.5.7-.9 1.6-.9 2.5 0 .3.1.7.2 1l-70.5 22.7c-.7-1.9-2.3-3.4-4.3-3.9zm-83.5-1.3h-.3l-9.4-67.4c3.1-.5 5.5-3.2 5.6-6.4h97.9c.1 1.3.4 2.4 1.2 3.4L77.7 266c-.8-.8-1.9-1.3-3.1-1.3zm210.1-155.3-84-8.8v-.2c0-2-1.5-3.7-3.4-4l6.2-56.1h.4c1.8 0 3.4-.8 4.5-2l77.5 68.1c-.6.9-1.1 1.9-1.2 3zM70.5 190.3c-.1-3.1-2.3-5.7-5.4-6.4l12.7-71.1c.3 0 .6.1.9.1 1.8 0 3.4-.8 4.5-2l86.6 75.7c-.8 1-1.3 2.3-1.4 3.7H70.5zM115 34.7c1.8 0 3.4-.8 4.5-1.9L193.4 98c-.5.7-.9 1.6-.9 2.5l-107.7 5.7c-.2-2.2-1.5-4.1-3.4-5l31.1-66.9c.9.3 1.6.4 2.5.4zm59.7 149.6c-1.8 0-3.4.8-4.5 2l-86.6-75.7c.9-1 1.4-2.4 1.4-3.9v-.1l107.7-5.7c.2 1.6 1.3 2.9 2.9 3.5L176 184.5c-.5-.1-.9-.2-1.3-.2zm1.7.3 19.5-80.1c.3 0 .5.1.7.1 1 0 2-.3 2.7-1l66.8 68.3c-.7.7-1 1.6-1 2.8v.4l-84.2 14.2c-.6-2.3-2.3-4.1-4.5-4.7zm26.7-144.3-6.2 56.1h-.2c-1.1 0-2.2.4-2.9 1.2l-73.9-65.1c.8-1 1.2-2.1 1.4-3.3l76.5 4.8v.2c-.1 3 2.3 5.6 5.3 6.1zM112.2 34l-31.1 66.9c-.8-.3-1.6-.5-2.4-.5-1 0-1.9.3-2.7.6L60.6 71.9c1.9-1 3.1-3.1 3.1-5.4 0-1.2-.3-2.4-1-3.4l47.3-31c.5.8 1.3 1.5 2.2 1.9zM57.5 72.7c1 0 1.9-.3 2.7-.6l15.4 29.1c-1.9 1-3.1 3.1-3.1 5.4 0 1.6.5 2.9 1.5 4L8.7 169.4c-.3-.3-.5-.5-.9-.7l46.9-96.8c.8.6 1.8.8 2.8.8zM8.9 169.9l65.2-58.8c.9.9 1.9 1.5 3.1 1.7l-12.7 71.1c-.3-.1-.6-.1-1-.1-2.9 0-5.5 1.9-6.4 4.5L9.7 173.4c.1-.3.1-.6.1-1 0-1-.3-1.8-.9-2.5zm260.2.7c-1 0-2 .3-2.7 1l-66.8-68.3c.5-.6.9-1.3 1-2.1l84 8.8c0 .5.1 1.1.3 1.6l.2.5c.5 1.8 1.9 3.1 3.6 3.6l-18.5 55c-.4-.1-.7-.1-1.1-.1zM9.5 173.9l47.6 14.9c-.2.6-.3 1.2-.3 1.8 0 3.7 3 6.8 6.8 6.8h.7l9.4 67.3c-.6.1-1.1.3-1.6.7L8.3 175.6c.5-.4 1-1.1 1.2-1.7zM78 266.4l91.9-71.7c.8 1 1.9 1.6 3.2 2l-15.4 69.2c-.3-.1-.8-.1-1.1-.1-3.3 0-6 2.5-6.2 5.8l-71.6-2.8v-.1c-.1-.8-.4-1.7-.8-2.3zM288 105c-.2.1-.3.2-.4.2l-42.7-63.4.1-.1 25.2 27.2c-.7.7-1.1 1.7-1.1 2.9 0 2.3 1.8 4.1 4.1 4.1.5 0 1-.1 1.5-.3L288 105zm-49.4-67.7c-.1.2-.1.4-.2.6l-28.2-3.3v-.5c0-3.5-2.8-6.2-6.2-6.2-2.1 0-3.9 1-5 2.6L166.1 8.3c.1-.1.1-.2.2-.3l72.3 29.3zm-80-30c0 .2.1.3.2.4l-38.2 17.9c-1-2-3.1-3.4-5.6-3.4-3.1 0-5.7 2.3-6.2 5.4l-26.5-2.8v-.7l76.3-16.8zM76.4 28 59.8 60.7c-.7-.3-1.5-.4-2.3-.4-3.5 0-6.2 2.8-6.2 6.2 0 1 .2 1.8.6 2.6L22.6 85c-.2-.3-.3-.4-.5-.6l53.7-56.9c.3.2.4.4.6.5zM18.1 91.2c.1 0 .2.1.3.1L6.2 168.4h-.3l-1.4-34.3c2.1-.2 3.7-1.9 3.7-4.1 0-1.6-1-3-2.3-3.7l12.2-35.1zM48 253c.4-.9.7-1.8.7-2.9 0-3.5-2.8-6.2-6.2-6.2-.8 0-1.6.2-2.2.4L7.8 176c.1 0 .2-.1.2-.1l63.9 89.9c-.3.3-.6.6-.8 1L48 253zm30.1 17.7c.3-.4.4-1 .5-1.5l71.6 2.8c0 1 .3 2 .7 2.9l-30.2 16.6c-.7-1-2-1.8-3.4-1.8-1.5 0-2.8.8-3.5 1.9l-35.7-20.9zm43.3 22.6c-.1-.5-.2-1-.4-1.4l30.2-16.6c1.1 1.8 3.1 3 5.4 3 2.7 0 4.9-1.6 5.9-4l36.7 12.8c-.1.3-.2.8-.2 1.1l-77.6 5.1zm84.3-8 28.8-35.8c.7.4 1.5.8 2.3.8 2.3 0 4.1-1.8 4.1-4.1 0-.4-.1-.8-.2-1.1l26.4-9.4c.2.3.3.4.4.6L206 285.6l-.3-.3zm66-55.6c-.3-.1-.7-.2-1-.2l-1.2-50.8c2.1-.2 3.7-1.9 3.7-4.1 0-1-.3-1.8-.9-2.5l20.6-17.3c.5.4 1 .8 1.7 1l-22.9 73.9z"/><path d="M57.4 201.5H30.2c-3.9 0-6.8-.9-8.4-2.6-1.6-1.7-2.5-4.6-2.5-8.4v-67c0-3.9.9-6.8 2.6-8.5s4.5-2.6 8.3-2.6h28.9c4.2 0 7.9.3 11 .8s5.9 1.6 8.4 3c2.1 1.2 4 2.9 5.6 4.8s2.9 4.1 3.7 6.4c.9 2.3 1.3 4.8 1.3 7.4 0 8.9-4.4 15.4-13.4 19.5 11.7 3.7 17.5 10.9 17.5 21.8 0 4.9-1.3 9.5-3.8 13.4-2.5 4-6 6.9-10.3 8.8-2.7 1.1-5.8 1.9-9.4 2.4-3.5.5-7.6.8-12.3.8zm-20.1-75.6v23h16.5c4.5 0 8-.4 10.4-1.3 2.4-.9 4.3-2.4 5.6-4.9 1-1.7 1.6-3.6 1.6-5.7 0-4.5-1.6-7.5-4.8-8.9-3.2-1.5-8.1-2.3-14.7-2.3l-14.6.1zm18.7 36H37.3v26h19.3c12.2 0 18.3-4.4 18.3-13.2 0-4.5-1.6-7.7-4.8-9.8-3.1-2-7.7-3-14.1-3zm61 30-7.5-44.1c0-3.6.9-6.4 2.5-8.2s11.3-6.5 13.9-6.5c2.7 0 12.4 4.6 14.1 6.4s2.5 4.5 2.5 8.2l-7.5 44.1c0 3.6-.9 6.4-2.5 8.2s-3.9 2.8-6.6 2.8c-2.6 0-4.8-1-6.4-2.8-1.6-1.6-2.5-4.4-2.5-8.1zm48.9 0-7.5-44.1c0-3.6.9-6.4 2.5-8.2s11.3-6.5 13.9-6.5c2.7 0 12.4 4.6 14.1 6.4 1.6 1.8 2.5 4.5 2.5 8.2l-7.5 44.1c0 3.6-.9 6.4-2.5 8.2s-3.9 2.8-6.6 2.8c-2.6 0-4.8-1-6.4-2.8-1.7-1.6-2.5-4.4-2.5-8.1zm80.2-25.1h-16.5V192c0 3.6-.9 6.3-2.5 8.2-1.7 1.8-3.8 2.8-6.4 2.8-2.7 0-4.9-1-6.6-2.8-1.6-1.8-2.5-4.5-2.5-8.1v-68.7c0-4 1-6.8 2.8-8.5s4.7-2.5 8.7-2.5h23.2c6.9 0 12.1.5 15.8 1.6 3.6 1 6.8 2.7 9.5 5s4.7 5.2 6.1 8.6c1.4 3.4 2.1 7.2 2.1 11.4 0 9.1-2.8 16-8.4 20.6-5.9 4.8-14.2 7.2-25.3 7.2zm-4.4-40.9h-12.1v27.2h12.1c4.2 0 7.8-.4 10.7-1.3 2.9-.9 5-2.3 6.5-4.3s2.3-4.7 2.3-8c0-3.9-1.1-7.1-3.5-9.6-2.6-2.7-7.9-4-16-4zM125.8 114c3.8 0 6.9 3.1 6.9 6.9s-3.1 6.9-6.9 6.9c-3.8 0-6.9-3.1-6.9-6.9s3-6.9 6.9-6.9m0-2.6c-5.3 0-9.5 4.2-9.5 9.5s4.2 9.5 9.5 9.5 9.5-4.2 9.5-9.5-4.3-9.5-9.5-9.5zm48.4 2.6c3.8 0 6.9 3.1 6.9 6.9s-3.1 6.9-6.9 6.9c-3.8 0-6.9-3.1-6.9-6.9s3.1-6.9 6.9-6.9m0-2.6c-5.3 0-9.5 4.2-9.5 9.5s4.2 9.5 9.5 9.5 9.5-4.2 9.5-9.5-4.2-9.5-9.5-9.5z"/><path d="M127.1 126.3h-2.7v-4h-4v-2.7h4v-4h2.7v4h4v2.7h-4v4zm41.7-4v-2.7h10.8v2.7h-10.8z"/></svg>