<svg xmlns="http://www.w3.org/2000/svg" xml:space="preserve" width="24" height="24"><path d="M21 2.8H3C1.6 2.8.5 3.9.5 5.3v10c0 1.4 1.1 2.5 2.5 2.5h2v3c0 .2.1.4.3.4h.2c.1 0 .3-.1.4-.2l2.9-3.3H21c1.4 0 2.5-1.1 2.5-2.5v-10c0-1.3-1.1-2.4-2.5-2.4zM6.9 10.2c-.7 0-1.2-.5-1.2-1.2s.5-1.2 1.2-1.2 1.2.5 1.2 1.2c0 .6-.5 1.2-1.2 1.2zm5.5 3.3h-.3c-1 0-1.8-.7-1.9-1.7 0-.1 0-.3.1-.4.1-.1.2-.2.3-.2l2.9-.4c.1 0 .3 0 .4.1.1.1.2.2.2.3.1 1.2-.6 2.2-1.7 2.3zm4.7-3.3c-.7 0-1.2-.5-1.2-1.2s.5-1.2 1.2-1.2 1.2.5 1.2 1.2c0 .6-.6 1.2-1.2 1.2z"/></svg>