<svg xmlns="http://www.w3.org/2000/svg" xml:space="preserve" style="enable-background:new 0 0 300 300" viewBox="0 0 300 300"><path d="M221.6 112.2c0 6.2 5 11.3 11.2 11.3 6.2 0 11.2-5 11.2-11.3V78.4h33.7c6.2 0 11.2-5 11.2-11.2s-5-11.2-11.2-11.2H244V22.2c0-6.2-5-11.3-11.2-11.3-6.2 0-11.2 5-11.2 11.3V56h-33.7c-6.2 0-11.2 5-11.2 11.2s5 11.2 11.2 11.2h33.7v33.8z" style="fill-rule:evenodd;clip-rule:evenodd"/><circle cx="67.2" cy="67.2" r="67.2"/><circle cx="67.2" cy="232.8" r="67.2"/><circle cx="232.8" cy="232.8" r="67.2"/></svg>