<svg xmlns="http://www.w3.org/2000/svg" xml:space="preserve" style="enable-background:new 0 0 300 300" viewBox="0 0 300 300"><path d="M150 0C67.2 0 0 67.2 0 150s67.2 150 150 150 150-67.2 150-150S232.8 0 150 0zm72.5 200.6c1 1 1.5 2.3 1.5 3.8 0 1.4-.5 2.8-1.5 3.8L208 222.7c-1.1 1.1-2.4 1.5-3.8 1.5-1.3 0-2.7-.5-3.7-1.5L150 172l-50.5 50.7c-1 1.1-2.4 1.5-3.8 1.5s-2.7-.5-3.7-1.5l-14.5-14.5c-1-1-1.5-2.3-1.5-3.8 0-1.4.5-2.8 1.5-3.7l50.7-50.9-50.8-50.3c-2.1-2.1-2.1-5.5 0-7.6l14.5-14.5c1-1 2.3-1.5 3.7-1.5 1.4 0 2.7.5 3.8 1.5l50.7 50 50.7-50c1-1 2.3-1.5 3.8-1.5 1.4 0 2.7.5 3.7 1.5l14.5 14.5c2.1 2.1 2.1 5.5 0 7.6L172 149.7l50.5 50.9z"/></svg>