<svg xmlns="http://www.w3.org/2000/svg" xml:space="preserve" style="enable-background:new 0 0 300 300" viewBox="0 0 300 300"><path d="M11.5 288.5c-1.5 0-3-.3-4.4-.9-4.3-1.8-7.1-6-7.2-10.6V66.7c.7-31.2 26.5-55.8 57.7-55.2h184.6c31.2-.7 57 24 57.7 55.1v108.9c-.7 31.2-26.5 55.8-57.7 55.2H74L19.8 285c-2.2 2.3-5.2 3.5-8.3 3.5zM57.7 34.6C39.3 34 23.8 48.3 23.1 66.7v182.4L61 211c2.2-2.2 5.1-3.4 8.2-3.3h173.1c18.4.7 33.9-13.7 34.6-32.1V66.7c-.8-18.4-16.2-32.7-34.6-32.1H57.7z"/><circle cx="150" cy="121.2" r="17.3"/><circle cx="213.5" cy="121.2" r="17.3"/><circle cx="86.5" cy="121.2" r="17.3"/></svg>