<svg xmlns="http://www.w3.org/2000/svg" xml:space="preserve" style="enable-background:new 0 0 300 46" viewBox="0 0 300 46"><path d="m36.8 5.2 2.4 6.5-4.7 2.8-1.3-1-23.1 18 34.6.5-39.2 6.2L0 31.1 36.8 5.2z"/><path d="m46.7 28 2.4-13.2 4.1 6.1L48.1 46l-4-3.2 2.2-12.7-8 5.7-3.3-5.4 2.9-15.9 7.6-6.3-5.8 21.6 7-1.8zm6.3-.2 5.7-25.2 4 3.2-2.9 14.6 9-6.2 3.1 5.4-3.3 14.3-7.6 6.3-8-12.4zm6.4-5.6L58 29.4l4.7 5.1 4.4-14.3-7.7 2zM77.5 28l-1.2 4.3 14.6 7.4-16.3-2.4-3.2-4.3 3.7-17.8 13.8-.7.3 10.8L77.5 28zm.2-1 7.3-5.2v-2.5l-5-.9-2.3 8.6z"/><path d="M96.1 20.7 92 44.3l-3.2-12.4L93.1 12l4 3.2-.6 3.5 6.5-5.6 3.5 5.2-5.7 5.2.6-4.6-5.3 1.8z"/><path d="m123.6 33.7-14.7 4.4-6.7-6.1 6.9-24.4 6.9-4.4-5.9 27.1 7.5 1.5 11.1-27.5-5.1 29.4zM154 11.5l-18.3 8.9 8.6 7.4-.5 6.1-19.5 6.1 14.5-9.8-8.6-8 1.2-5.7 22.6-5z"/><path d="m152.6 28-1.2 4.3 14.6 7.4-16.3-2.4-3.1-4.3 3.7-17.8 13.8-.7.3 10.8-11.8 2.7zm.3-1 7.3-5.2v-2.5l-5-.9-2.3 8.6z"/><path d="m171.2 20.7-4.1 23.5-3.2-12.4 4.3-19.9 4 3.2-.6 3.5 6.5-5.6 3.5 5.2-5.7 5.2.6-4.6-5.3 1.9zm37.8 9.9-9.3 10.3L186.3 6l15.3 22.9 4.8-5L196.9.6l12.4 20.2L223.6 6l7.7-.2-18.4 20.4 1.9 2.8 22.1-23 11.6-4.7-35.6 39.6-3.9-10.3zm25.4 2.7 3.9-17.8 9.3-2.7 4.7 3.5-3 18.4-9.9 3.6-5-5zm5.2-3 1.1 3.1 4.4-2.2 2.5-12-1.1-2.2-3.8 1.7-3.1 11.6zm19.7-9.6-4.1 23.5-3.2-12.3 4.3-19.9 4 3.2-.6 3.5 6.5-5.6 3.5 5.2-5.7 5.2.6-4.6-5.3 1.8zm11.9 22.2-3.8-11 5.8-29.2 4 3.2-6 37zm20.5-7.7-6 4.6 1.4-7.7-9 6.2-3.1-5.4 3.3-14.3 7.6-6.3L290 19l2.9-12.9L300 0l-8.3 35.2zm-4.3-4.8 1.4-7.2-4.7-5.1-4.4 14.3 7.7-2z"/></svg>