<svg xmlns="http://www.w3.org/2000/svg" xml:space="preserve" style="enable-background:new 0 0 185.9 185.9" viewBox="0 0 185.9 185.9"><path d="M92.9 39.3c15.1 0 27.3 12.3 27.3 27.3 0 15.1-12.3 27.3-27.3 27.3S65.6 81.7 65.6 66.6c0-15.1 12.3-27.3 27.3-27.3m0-9c-20.1 0-36.3 16.3-36.3 36.3s16.3 36.3 36.3 36.3 36.3-16.3 36.3-36.3S113 30.3 92.9 30.3zm54.9 119.3c-1.3 0-2.6-.6-3.5-1.7-.2-.2-18.1-22.3-51.3-22.3-32.6 0-51.2 22.1-51.4 22.3-1.6 1.9-4.4 2.2-6.3.6-1.9-1.6-2.2-4.4-.6-6.3.9-1 21.3-25.7 58.4-25.7 37.7 0 57.6 24.7 58.4 25.7 1.5 2 1.2 4.8-.7 6.3-1 .8-2 1.1-3 1.1zm29.1-121.1v12.3h9V28.5c0-15.7-12.8-28.5-28.5-28.5h-12.3v9h12.3c10.7 0 19.5 8.7 19.5 19.5zm0 116.6v12.3c0 10.8-8.7 19.5-19.5 19.5h-12.3v9h12.3c15.7 0 28.5-12.8 28.5-28.5v-12.3h-9zM9 40.8V28.5C9 17.7 17.7 9 28.5 9h12.3V0H28.5C12.8 0 0 12.8 0 28.5v12.3h9zm19.5 136.1c-10.8 0-19.5-8.7-19.5-19.5v-12.3H0v12.3c0 15.7 12.8 28.5 28.5 28.5h12.3v-9H28.5z"/></svg>