<svg xmlns="http://www.w3.org/2000/svg" xml:space="preserve" style="enable-background:new 0 0 300 85.7" viewBox="0 0 300 85.7"><style>.st2{fill:#fff}</style><path id="blue" d="m293.4 85-.6-.5L250.9 48c-1.4-1.2-2.3-3.1-2.3-5.1 0-2.1.9-3.9 2.3-5.1l41.9-36.4.7-.6c.7-.5 1.5-.7 2.3-.7 2.3 0 4.2 2 4.2 4.4v76.8c0 2.5-1.9 4.4-4.2 4.4-.9 0-1.7-.3-2.4-.7z" style="fill:#3e92ff"/><path id="red" d="M194.1 85.7c-2.3 0-4.2-2-4.2-4.4V4.4c0-2.5 1.9-4.4 4.2-4.4.9 0 1.7.3 2.3.7l.7.6L239 37.8c1.4 1.2 2.3 3.1 2.3 5.1 0 2.1-.9 3.9-2.3 5.1l-42 36.5-.6.5c-.6.4-1.4.7-2.3.7z" style="fill:#db463e"/><path id="f" d="M51.6 50.7H17.7v35H0V0h55.8v14.3H17.7v22.2h33.9z" class="st2"/><path id="h" d="M151.7 85.7h-17.6V49H99.6v36.7H81.9V0h17.7v34.7h34.5V0h17.6z" class="st2"/></svg>