<svg xmlns="http://www.w3.org/2000/svg" xml:space="preserve" width="512" height="512"><path fill="#ffffff" d="M256.002 7h-.311c-.098 0-.195.02-.293.02C118.146 7.331 7 118.68 7 256c0 137.281 111.146 248.65 248.398 248.98.098 0 .195.02.293.02h.311C393.494 505 505 393.494 505 256 505 118.486 393.494 7 256.002 7zm9.955 149.011c26.398-.72 52.096-4.202 76.82-10.232 7.471 29.355 12.082 63.184 12.82 100.261h-89.641v-90.029zm0-19.92V28.496c26.865 7.431 54.061 43.225 71.395 98.122-22.995 5.543-46.864 8.773-71.395 9.473zM246.042 28.262v107.829c-24.724-.7-48.789-3.988-71.967-9.629 17.478-55.228 44.937-91.158 71.967-98.2zm0 127.729v90.048h-90.253c.729-37.136 5.369-71.004 12.829-100.378 24.929 6.089 50.812 9.63 77.424 10.33zm-110.3 90.049H27.173c2.198-51.2 21.272-98.121 51.813-135.277 22.177 12.217 45.706 22.216 70.354 29.686-8.044 31.766-12.869 67.579-13.598 105.591zm0 19.92c.729 37.992 5.554 73.805 13.599 105.572a366.927 366.927 0 0 0-70.354 29.704c-30.541-37.155-49.615-84.075-51.813-135.276h108.568zm20.047 0h90.253v89.932a365.458 365.458 0 0 0-77.433 10.368c-7.461-29.354-12.091-63.202-12.82-100.3zm90.253 109.832v107.946c-27.049-7.062-54.527-43.031-71.996-98.317 23.187-5.641 47.261-8.928 71.996-9.629zm19.915 107.712V375.792c24.531.701 48.4 3.949 71.414 9.493-17.334 54.936-44.549 90.788-71.414 98.219zm0-127.612V265.96h89.641c-.738 37.038-5.35 70.828-12.781 100.164-24.764-6.031-50.442-9.532-76.86-10.232zm109.678-89.932h109.191c-2.197 51.201-21.262 98.103-51.803 135.258-22.354-12.295-46.086-22.371-70.947-29.88 8.033-31.729 12.838-67.464 13.559-105.378zm0-19.92c-.721-37.972-5.545-73.727-13.578-105.475a367.489 367.489 0 0 0 70.908-29.86c30.58 37.155 49.664 84.096 51.861 135.335H375.635zM419.25 95.492c-19.822 10.543-40.736 19.258-62.582 25.873-11.652-37.467-27.994-68.047-47.33-88.123 42.408 10.175 80.283 32.117 109.912 62.25zM201.874 33.437c-19.23 20.037-35.502 50.481-47.106 87.753a346.815 346.815 0 0 1-62.007-25.698c29.431-29.938 67.016-51.823 109.113-62.055zM92.692 416.43a345.995 345.995 0 0 1 62.056-25.717c11.604 37.311 27.876 67.794 47.125 87.85-42.125-10.251-79.729-32.156-109.181-62.133zm216.646 62.308c19.357-20.076 35.697-50.676 47.35-88.201a346.606 346.606 0 0 1 62.621 25.912c-29.629 30.153-67.524 52.134-109.971 62.289z"/></svg>