<svg fill="#ffffff" xmlns="http://www.w3.org/2000/svg" style="enable-background:new 0 0 300 300" viewBox="0 0 300 300"><path d="M231.5 23.3c-6-7.8-17.7-8.6-25-2.2-1.7 1.7-3.4 3.9-4.7 5.6C184.5 56 166.4 72 145.3 80.2c-23.7 9.1-50.9 15.1-93.5 11.2-2.2-.4-4.7 0-6.9.9-4.7 1.7-8.2 4.7-10.3 8.6-2.2 3.9-2.6 9.1-1.3 13.4.9 2.2 1.7 4.3 3.4 6l53 62.5L0 283.2l114.2-70.7 52.2 62.5c1.7 1.7 3.4 3 5.2 4.3 1.7 1.3 4.3 1.7 6.5 1.7s4.7 0 6.9-.9c4.7-1.7 8.6-4.7 10.3-8.6 1.3-1.7 1.7-4.3 1.7-6.5 3.9-42.7 13.8-68.1 27.2-89.7 12.1-19.4 30.6-34.1 62.9-46.6 2.2-.9 4.7-1.7 6.5-3.4 7.8-6.5 8.6-17.7 2.2-25l-64.3-77z"/></svg>