<svg fill="#ffffff" xmlns="http://www.w3.org/2000/svg" xml:space="preserve" style="enable-background:new 0 0 128 128" viewBox="0 0 128 128"><path d="M113.5 112.5c.1-1.1-.7-2.1-1.8-2.2L94 108.6c25.2-18.6 30.6-54.2 12-79.5S51.7-1.5 26.4 17.2-4.2 71.5 14.5 96.8c14.4 19.6 39.7 27.7 62.8 20.4 1-.3 1.7-1.4 1.4-2.4-.3-1-1.4-1.7-2.4-1.4l-.1.1c-28 8.7-57.8-6.9-66.6-34.7s6.7-57.6 34.6-66.5 57.6 6.7 66.5 34.6c6.9 21.9-1.1 45.7-19.8 59l1.7-18.5c.1-1.1-.7-2.1-1.8-2.2-1.1-.1-2.1.7-2.2 1.8l-2.1 22.9c0 .4.1.9.3 1.2l.1.2c.3.4.9.7 1.4.7l22.9 2.1c1.2.3 2.2-.5 2.3-1.6z"/><path d="M81 30c-1.4-1.8-4.1-2-5.8-.5-.4.4-.8.9-1.1 1.3-4 6.8-8.2 10.5-13.1 12.4-5.5 2.1-11.8 3.5-21.7 2.6-.5-.1-1.1 0-1.6.2-1.1.4-1.9 1.1-2.4 2s-.6 2.1-.3 3.1c.2.5.4 1 .8 1.4L48.1 67 27.3 90.3l26.5-16.4 12.1 14.5c.4.4.8.7 1.2 1 .4.3 1 .4 1.5.4s1.1 0 1.6-.2c1.1-.4 2-1.1 2.4-2 .3-.4.4-1 .4-1.5.9-9.9 3.2-15.8 6.3-20.8 2.8-4.5 7.1-7.9 14.6-10.8.5-.2 1.1-.4 1.5-.8 1.8-1.5 2-4.1.5-5.8L81 30z"/></svg>