<svg xmlns="http://www.w3.org/2000/svg" width="96" height="96" fill="none"><path fill="#F91F1F" d="M24.356 83.791c-10.4-8.935 5.26-39.832 13.387-48.358 5.755-3.837 16.52-1.599 21.182 0 19.823 17.905 20.325 43.192 14.39 48.358-6.25 5.44-42.315 5.709-48.96 0Z"/><path fill="#890E0E" fill-rule="evenodd" d="M36.295 34.053c.102-.107.216-.202.339-.284 3.444-2.296 8.134-2.658 12.25-2.37 4.193.294 8.22 1.296 10.69 2.142a2 2 0 0 1 .692.408C70.522 43.213 75.8 54.406 77.739 63.993c.969 4.788 1.114 9.224.599 12.86-.501 3.542-1.681 6.68-3.71 8.447-1.087.946-2.64 1.645-4.323 2.19-1.727.559-3.782 1.013-6.026 1.374-4.49.72-9.9 1.09-15.29 1.108-5.39.017-10.825-.319-15.37-1.032-2.27-.356-4.358-.813-6.124-1.384-1.728-.558-3.314-1.278-4.443-2.248-3.266-2.806-4.275-7.156-4.134-11.705.142-4.586 1.454-9.778 3.306-14.833 3.693-10.076 9.763-20.197 14.071-24.717Zm22.63 1.38c19.823 17.905 20.325 43.192 14.39 48.358-6.25 5.44-42.315 5.709-48.96 0-10.4-8.935 5.262-39.832 13.388-48.358 5.755-3.837 16.52-1.599 21.182 0Z" clip-rule="evenodd"/><path fill="#D91F1F" d="M20.953 72.875c.227 3.311 1.263 6.078 3.403 7.916 6.644 5.709 42.709 5.44 48.958 0 1.847-1.607 3.071-5.163 3.283-9.839.262 6.14-1.058 10.903-3.283 12.84-6.25 5.439-42.314 5.708-48.958 0-2.759-2.37-3.684-6.285-3.403-10.917Z"/><path fill="#D91F1F" d="M63.415 86.974c4.624-.7 8.272-1.767 9.9-3.183 5.935-5.166 5.433-30.453-14.39-48.358-2.463-.844-6.629-1.867-10.86-2.079 1.906.5 3.58 1.068 4.824 1.568C72.53 54.607 71.686 80.923 65.236 85.974c-.468.366-1.081.7-1.82 1Z"/><path fill="#AB1B1B" d="M68.63 65.152a1.07 1.07 0 1 1-2.143 0 1.07 1.07 0 0 1 2.142 0Zm4.336 2.517a1.446 1.446 0 1 1-2.891 0 1.446 1.446 0 0 1 2.891 0Zm-.723-4.699a1.084 1.084 0 1 1-2.168 0 1.084 1.084 0 0 1 2.168 0Zm.882 10.91a2.249 2.249 0 1 1-4.498 0 2.249 2.249 0 0 1 4.498 0Zm-4.495-4.043a1.446 1.446 0 1 1-2.892 0 1.446 1.446 0 0 1 2.891 0Zm.682 8.728a.877.877 0 1 1-1.754 0 .877.877 0 0 1 1.754 0Zm-3.041 2.758a1.446 1.446 0 1 1-2.891 0 1.446 1.446 0 0 1 2.891 0Zm.216-4.926a1.446 1.446 0 1 1-2.891 0 1.446 1.446 0 0 1 2.891 0Zm-5.301 6.893a1.084 1.084 0 1 1-2.168 0 1.084 1.084 0 0 1 2.168 0Z"/><path fill="#FD5252" d="M43.188 63c-2.18 8.564-9.04 10.766-13.188 9.75-3.063-.75-7.004-7.893-3.704-15.717 3.3-7.824 6.875-12.313 13.464-11.917 5.294.319 5.189 10.964 3.428 17.884Z"/><path fill="#FFA7A7" fill-rule="evenodd" d="M35.367 49.668a2 2 0 0 1-.16 2.824c-.614.548-1.402 1.64-2.118 3.024-.704 1.362-1.23 2.797-1.434 3.908a2 2 0 0 1-3.934-.723c.295-1.608.988-3.423 1.815-5.022.815-1.576 1.87-3.156 3.007-4.17a2 2 0 0 1 2.824.159Z" clip-rule="evenodd"/><path fill="#F91F1F" d="M57.776 36.632c5.435-1.918 9.458-11.457 10.79-15.986.8-5.595-2.797-6.794-4.796-6.395-1.998.4-4.795.8-5.595 0-.799-.799-5.595-4.396-8.392-.4-2.239 3.198-5.729 3.464-7.194 3.198-2.398-.533-7.114-.64-6.794 3.197.32 3.837-2.265 4.796-3.597 4.796-1.865-.266-5.356-.08-4.396 2.798.959 2.877 7.593 7.06 10.79 8.792 5.755-3.517 15.187-1.465 19.184 0Z"/><path fill="#890E0E" fill-rule="evenodd" d="M70.485 21.21c.027-.092.048-.186.061-.281.463-3.241-.303-5.688-1.987-7.211-1.596-1.445-3.67-1.73-5.18-1.428l.392 1.961c1.998-.4 5.595.8 4.795 6.395-1.332 4.53-5.355 14.068-10.79 15.986-3.997-1.465-13.429-3.517-19.184 0-3.197-1.732-9.831-5.915-10.79-8.792-.96-2.878 2.53-3.064 4.396-2.798 1.332 0 3.916-.96 3.597-4.796-.32-3.836 4.396-3.73 6.794-3.197 1.465.266 4.956 0 7.194-3.197 2.797-3.997 7.593-.4 8.392.4.8.799 3.597.399 5.596 0l-.393-1.962c-.969.194-2.052.37-2.95.413-.452.022-.78.005-.988-.03l-.029-.005c-.695-.631-2.249-1.767-4.103-2.329-1.046-.317-2.316-.49-3.628-.165-1.36.338-2.58 1.166-3.536 2.53-1.642 2.346-4.194 2.546-5.167 2.382-1.355-.295-3.466-.507-5.323-.009-.962.259-2.02.753-2.806 1.695-.824.988-1.163 2.245-1.046 3.64.117 1.416-.3 1.975-.55 2.207a1.686 1.686 0 0 1-.956.419c-1.071-.133-2.694-.165-4.063.353-.756.287-1.649.824-2.179 1.824-.55 1.037-.507 2.185-.15 3.257.387 1.16 1.244 2.227 2.11 3.111.906.925 2.014 1.841 3.15 2.687 2.271 1.692 4.814 3.22 6.476 4.12a2 2 0 0 0 1.995-.051c2.354-1.439 5.65-1.825 9.065-1.58 3.369.241 6.542 1.074 8.387 1.75a2 2 0 0 0 1.354.01c3.44-1.215 6.113-4.649 7.998-7.897 1.948-3.355 3.344-7.025 4.046-9.412ZM59.31 12.642s.005.003.017.006a.09.09 0 0 0-.017-.006Z" clip-rule="evenodd"/><path fill="#FE5252" fill-rule="evenodd" d="M33.553 26.105a1 1 0 0 1 1.341.448c.209.417.665 1.109 1.218 1.847.548.73 1.141 1.44 1.595 1.893a1 1 0 0 1-1.414 1.414c-.546-.546-1.203-1.337-1.78-2.107-.572-.762-1.116-1.57-1.407-2.153a1 1 0 0 1 .447-1.341Zm11.283-8.091a1 1 0 0 1 1.15.822c.24 1.443.756 3.511 1.326 5.421.58 1.944 1.176 3.585 1.555 4.245a1 1 0 0 1-1.734.996c-.512-.891-1.166-2.75-1.738-4.669-.582-1.952-1.122-4.108-1.381-5.665a1 1 0 0 1 .822-1.15Zm13.406-2.484a1 1 0 0 1 .728 1.212C57.997 20.636 57.5 27.048 57.5 30a1 1 0 1 1-2 0c0-3.048.503-9.636 1.53-13.743a1 1 0 0 1 1.212-.727Z" clip-rule="evenodd"/><path fill="#B81212" d="M51.875 45c0 6.075-1.091 11-2.438 11C48.091 56 47 51.075 47 45s1.091-11 2.438-11c1.346 0 2.437 4.925 2.437 11Zm-9.215-2.164c-1.392 4.651-3.55 8.114-4.819 7.735-1.268-.38-1.168-4.46.225-9.111 1.393-4.652 3.55-8.115 4.82-7.735 1.268.38 1.167 4.459-.225 9.11Zm12.17-13.924c.068 4.236-.565 7.681-1.416 7.695-.85.014-1.595-3.409-1.663-7.645-.07-4.236.564-7.681 1.414-7.695.85-.014 1.596 3.41 1.664 7.645Z"/><path fill="#B81212" d="M43.951 29.057c2.043 3.712 3.096 7.053 2.351 7.463-.745.41-3.005-2.266-5.048-5.978-2.044-3.71-3.096-7.052-2.351-7.462.745-.41 3.005 2.266 5.048 5.977Zm18.66.693c-1.87 3.8-4.006 6.578-4.77 6.202-.762-.376.136-3.761 2.008-7.562 1.871-3.8 4.007-6.578 4.77-6.202.763.376-.136 3.761-2.008 7.562Z"/><path fill="#B81212" d="M60.23 42.13c1.253 4.692 1.23 8.773-.049 9.114-1.28.342-3.332-3.185-4.584-7.877-1.252-4.691-1.23-8.772.05-9.113 1.28-.342 3.331 3.185 4.584 7.877Z"/><path fill="#18BC8B" d="M37.475 33.561C33.56 35.067 32 39.414 32 41.171c.879-1.004 5.505-3.619 14.54-4.221 9.036-.603 16.203 1.832 17.96 3.338-.602-3.012-1.454-5.611-4.18-6.727-6.627-2.71-19.352-1.343-22.845 0Z"/><path fill="#065940" fill-rule="evenodd" d="M31.297 43.043A2 2 0 0 1 30 41.171c0-1.316.531-3.189 1.546-4.913 1.04-1.768 2.72-3.605 5.212-4.563m.717 1.866-.717-1.866c2.059-.792 6.379-1.48 10.888-1.652 4.514-.174 9.707.144 13.431 1.667 3.79 1.551 4.786 5.197 5.384 8.186a2 2 0 0 1-3.263 1.91c-.195-.167-.738-.505-1.727-.907-.948-.385-2.187-.781-3.67-1.122-2.963-.68-6.818-1.12-11.128-.832-4.35.29-7.583 1.061-9.79 1.849-1.105.394-1.94.788-2.525 1.119-.616.349-.844.567-.853.575a2 2 0 0 1-2.208.555m6.178-9.482c-2.372.913-3.88 2.868-4.7 4.659-.533 1.164-.775 2.259-.775 2.951.308-.352 1.078-.903 2.339-1.496 2.33-1.096 6.337-2.334 12.201-2.725 6.727-.449 12.417.786 15.612 2.067 1.096.44 1.899.886 2.348 1.271-.194-.968-.413-1.894-.712-2.742-.632-1.788-1.619-3.228-3.468-3.985-6.627-2.71-19.352-1.343-22.845 0Z" clip-rule="evenodd"/><path fill="#0F956D" fill-rule="evenodd" d="M32.351 39.306c-.24.738-.351 1.395-.351 1.865.879-1.004 5.505-3.619 14.54-4.221.475-.032.944-.055 1.408-.07a42.403 42.403 0 0 0-4.234.07c-5.213.347-8.958 1.365-11.363 2.356Zm28.963-.603c-.611-2.317-1.586-4.228-3.82-5.142-2.455-1.004-5.747-1.449-9.096-1.542 4.255-.112 8.776.255 11.922 1.542 2.726 1.116 3.578 3.715 4.18 6.727-.557-.477-1.656-1.047-3.186-1.585Z" clip-rule="evenodd"/><path fill="#38EFB8" fill-rule="evenodd" d="M48.485 35.283c-4.376 0-9.163 1.224-10.988 1.832a1 1 0 1 1-.632-1.897c1.943-.648 6.954-1.935 11.62-1.935a1 1 0 1 1 0 2Z" clip-rule="evenodd"/></svg>