<svg xmlns="http://www.w3.org/2000/svg" xml:space="preserve" x="0" y="0" viewBox="0 0 300 300" fill="#db463e"><path d="M93.2 224.6H36.7C16.5 224.6 0 208.2 0 187.9v-75.8c0-20.3 16.5-36.7 36.7-36.7h56.4c6.2 0 11.2 5 11.2 11.2v126.9c.1 6.1-4.9 11.1-11.1 11.1zM36.7 97.8c-7.9 0-14.3 6.4-14.3 14.3v75.8c0 7.9 6.4 14.3 14.3 14.3H82V97.8H36.7z"/><path d="M179.7 273.1h-36.8c-33.6 0-60.9-27.3-60.9-60.9V87.8c0-33.6 27.3-60.9 60.9-60.9h36.8c6.2 0 11.2 5 11.2 11.2v223.7c0 6.2-5 11.3-11.2 11.3zM142.9 49.3c-21.3 0-38.5 17.3-38.5 38.5v124.3c0 21.3 17.3 38.5 38.5 38.5h25.7V49.3h-25.7zm82.6 143.5c-6.2 0-11.2-5-11.2-11.2 0-3 1.2-5.8 3.3-7.9l63.3-63.3c4.4-4.4 11.5-4.4 15.8 0 4.4 4.4 4.4 11.5 0 15.8l-63.2 63.3c-2.1 2.2-5 3.3-8 3.3z"/><path d="M288.8 192.8c-3 0-5.8-1.2-7.9-3.3l-63.3-63.3c-4.4-4.4-4.4-11.5 0-15.8 4.4-4.4 11.5-4.4 15.8 0l63.3 63.3c4.4 4.4 4.4 11.5 0 15.8-2.1 2.1-4.9 3.3-7.9 3.3z"/></svg>