<svg xmlns="http://www.w3.org/2000/svg" xml:space="preserve" y="0" viewBox="0 0 300 300" fill="#db463e"><path d="M92.6 224.2H36.5C16.4 224.2 0 207.8 0 187.7v-75.3c0-20.2 16.4-36.5 36.5-36.5h56.1c6.1 0 11.1 5 11.1 11.1v126c.1 6.2-4.9 11.2-11.1 11.2zM36.5 98.1c-7.9 0-14.2 6.4-14.3 14.2v75.3c0 7.9 6.4 14.2 14.3 14.2h45V98.1h-45z"/><path d="M178.7 272.3H142c-33.4 0-60.5-27.1-60.5-60.5V88.2c0-33.4 27.1-60.5 60.5-60.5h36.6c6.1 0 11.1 5 11.1 11.1v222.4c.1 6.1-4.9 11.1-11 11.1zM142 49.9c-21.1 0-38.3 17.2-38.3 38.3v123.6c0 21.1 17.2 38.3 38.3 38.3h25.5V49.9H142zm83.8 147.3c-6.1 0-11.1-5-11.1-11.2 0-2.9 1.2-5.7 3.2-7.8 15.6-15.6 15.6-40.8 0-56.4-4.3-4.3-4.3-11.4 0-15.7 4.3-4.3 11.4-4.3 15.7 0 24.2 24.3 24.2 63.5 0 87.8-2 2.1-4.8 3.3-7.8 3.3z"/><path d="M259.9 231.2c-6.1 0-11.1-5-11.1-11.1 0-3 1.2-5.8 3.3-7.9 34.3-34.4 34.3-90.1 0-124.5-4.3-4.3-4.3-11.4 0-15.7 4.3-4.3 11.4-4.3 15.7 0 43 43 43 112.9 0 155.9-2.1 2.2-5 3.3-7.9 3.3z"/></svg>