<svg xmlns="http://www.w3.org/2000/svg" xml:space="preserve" style="enable-background:new 0 0 110.1 85.7" viewBox="0 0 110.1 85.7"><path d="m103.5 85-.6-.5L61 48c-1.4-1.2-2.3-3.1-2.3-5.1 0-2.1.9-3.9 2.3-5.1l41.9-36.4.7-.6c.7-.5 1.5-.7 2.3-.7 2.3 0 4.2 2 4.2 4.4v76.8c0 2.5-1.9 4.4-4.2 4.4-.9 0-1.7-.3-2.4-.7z" style="fill:#3e92ff"/><path d="M4.2 85.7c-2.3 0-4.2-2-4.2-4.4V4.4C0 1.9 1.9 0 4.2 0c.9 0 1.7.3 2.3.7l.7.6 41.9 36.5c1.4 1.2 2.3 3.1 2.3 5.1 0 2.1-.9 3.9-2.3 5.1l-42 36.5-.6.5c-.6.4-1.4.7-2.3.7z" style="fill:#db463e"/></svg>