<svg xmlns="http://www.w3.org/2000/svg" viewBox="0 0 128 128"><path d="M120 56a8 8 0 0 0-7.74 6H102a37.86 37.86 0 0 0-9.72-23.4l7.31-7.31a8 8 0 1 0-2.83-2.83l-7.36 7.31A37.86 37.86 0 0 0 66 26.05V15.74a8 8 0 1 0-4 0v10.31a37.86 37.86 0 0 0-23.4 9.72l-7.31-7.31a8 8 0 1 0-2.83 2.83l7.31 7.31A37.86 37.86 0 0 0 26.05 62H15.74a8 8 0 1 0 0 4h10.31a37.86 37.86 0 0 0 9.72 23.4l-7.31 7.31a8 8 0 1 0 2.83 2.83l7.31-7.31A37.86 37.86 0 0 0 62 102v10.31a8 8 0 1 0 4 0V102a37.86 37.86 0 0 0 23.4-9.72l7.31 7.31a8 8 0 1 0 2.83-2.83l-7.31-7.36A37.86 37.86 0 0 0 102 66h10.31A8 8 0 1 0 120 56Zm-19.23-34.43a4 4 0 1 1-1.17 2.83 4 4 0 0 1 1.17-2.83ZM60 8a4 4 0 1 1 4 4 4 4 0 0 1-4-4ZM21.57 27.23a4 4 0 0 1 5.66-5.66 4 4 0 0 1-5.66 5.66ZM8 68a4 4 0 1 1 4-4 4 4 0 0 1-4 4Zm19.23 38.43a4 4 0 0 1-5.66-5.66 4 4 0 0 1 5.66 5.66ZM68 120a4 4 0 1 1-4-4 4 4 0 0 1 4 4Zm38.43-19.23a4 4 0 0 1-5.66 5.66 4 4 0 0 1 5.66-5.66ZM64 98a34 34 0 1 1 34-34 34 34 0 0 1-34 34Zm56-30a4 4 0 1 1 4-4 4 4 0 0 1-4 4Z"/><path d="M40.34 58.34a8 8 0 1 0 11.32 0 8 8 0 0 0-11.32 0Zm8.49 8.49a4 4 0 1 1 0-5.66 4 4 0 0 1 0 5.66Zm9.51-26.49a8 8 0 1 0 11.32 0 8 8 0 0 0-11.32 0Zm8.49 8.49a4 4 0 1 1 0-5.66 4 4 0 0 1 0 5.66Zm9.51 9.51a8 8 0 1 0 11.32 0 8 8 0 0 0-11.32 0Zm8.49 8.49a4 4 0 1 1 0-5.66 4 4 0 0 1 0 5.66Zm-26.49 9.51a8 8 0 1 0 11.32 0 8 8 0 0 0-11.32 0Zm8.49 8.49a4 4 0 1 1 0-5.66 4 4 0 0 1 0 5.66Z"/></svg>