<?xml version="1.0" standalone="no"?>
<!DOCTYPE svg PUBLIC "-//W3C//DTD SVG 20010904//EN"
 "http://www.w3.org/TR/2001/REC-SVG-20010904/DTD/svg10.dtd">
<svg version="1.0" xmlns="http://www.w3.org/2000/svg"
 width="700.000000pt" height="700.000000pt" viewBox="0 0 700.000000 700.000000"
 preserveAspectRatio="xMidYMid meet">
<metadata>
Created by potrace 1.14, written by Peter Selinger 2001-2017
</metadata>
<g transform="translate(0.000000,700.000000) scale(0.100000,-0.100000)"
fill="#000000" stroke="none">
<path d="M3753 6940 c-26 -11 -53 -50 -56 -79 -1 -13 -10 -24 -22 -27 -21 -5
-238 -52 -475 -103 -80 -17 -161 -35 -180 -41 -19 -5 -51 -12 -70 -15 -19 -3
-127 -26 -240 -52 -113 -25 -216 -47 -230 -50 -14 -2 -61 -12 -105 -23 -65
-15 -152 -34 -210 -46 -5 -1 -37 -7 -70 -15 -33 -7 -62 -13 -65 -14 -3 0 -23
-5 -45 -10 -59 -13 -59 -13 -77 17 -32 51 -121 53 -154 3 -22 -34 -25 -66 -9
-99 l15 -30 -65 -66 c-36 -36 -65 -68 -65 -72 0 -3 31 26 69 66 38 39 72 68
75 65 6 -6 -247 -514 -264 -533 -4 -4 -11 1 -14 12 -4 11 -24 27 -45 35 -85
35 -172 -12 -184 -98 -8 -53 39 -138 78 -142 11 -2 30 -4 43 -5 14 -2 21 -7
17 -16 -3 -8 -5 -16 -5 -18 0 -3 -5 -2 -11 1 -6 4 -26 7 -45 7 -19 0 -31 4
-28 9 3 6 -15 -5 -40 -22 -49 -35 -79 -86 -78 -133 1 -40 -24 -80 -62 -99 -39
-20 -181 -97 -261 -142 -226 -125 -346 -187 -353 -181 -3 4 12 25 34 49 l39
42 -41 -39 c-34 -31 -46 -37 -65 -30 -41 13 -52 13 -81 -2 -28 -14 -56 -58
-52 -81 1 -7 2 -20 3 -28 0 -9 13 -27 27 -42 l25 -25 -75 -212 c-41 -116 -81
-231 -90 -256 -8 -25 -37 -110 -65 -189 -28 -79 -51 -145 -51 -146 0 -1 -19
-5 -41 -8 -58 -8 -84 -36 -84 -93 0 -38 5 -50 28 -70 15 -13 36 -24 45 -24 18
0 19 -5 21 -177 1 -46 5 -83 9 -83 8 0 8 20 1 175 -3 73 3 95 26 95 22 0 55
50 55 86 0 20 -9 44 -25 62 l-25 30 49 143 c27 79 82 236 121 349 40 113 81
231 92 263 11 32 22 57 23 55 2 -2 -1 -28 -6 -58 -5 -30 -11 -70 -14 -87 -3
-18 -7 -50 -10 -70 -3 -21 -8 -49 -10 -63 -3 -14 -7 -43 -10 -65 -4 -22 -10
-65 -15 -95 -5 -30 -12 -73 -15 -95 -3 -22 -7 -47 -10 -55 -2 -8 -6 -37 -10
-64 -3 -26 -12 -79 -19 -117 -7 -39 -9 -72 -5 -75 5 -3 9 3 10 13 0 10 2 27 4
38 3 16 54 332 70 435 13 88 45 289 49 310 3 14 5 31 5 38 1 6 10 12 22 12 50
0 93 57 82 110 -4 23 3 29 79 69 46 25 179 98 297 163 117 66 216 117 218 114
3 -3 -16 -43 -43 -90 -42 -74 -51 -84 -74 -81 -74 8 -123 -81 -74 -135 11 -14
11 -20 -5 -45 -10 -17 -29 -50 -43 -75 -14 -25 -46 -80 -72 -123 -25 -43 -46
-82 -46 -87 0 -6 -4 -10 -8 -10 -4 0 -13 -12 -19 -27 -7 -16 -22 -44 -35 -65
-13 -20 -48 -79 -78 -132 -39 -68 -63 -99 -83 -107 -15 -7 -44 -31 -63 -55
-20 -24 -44 -46 -53 -49 -20 -6 -41 -45 -41 -75 0 -10 11 -32 25 -48 l25 -30
-1 -408 c0 -305 -3 -413 -12 -424 -7 -8 -50 -49 -97 -90 -47 -41 -96 -85 -110
-98 -24 -22 -47 -24 -43 -4 1 5 32 70 68 142 36 73 64 135 62 136 -2 2 -35
-59 -72 -136 -38 -77 -73 -140 -78 -140 -9 0 -7 25 21 198 10 61 15 112 10
112 -4 0 -8 -8 -9 -17 0 -10 -2 -29 -5 -43 -2 -14 -11 -74 -20 -133 -9 -59
-19 -106 -21 -103 -7 7 -21 291 -22 449 -1 37 -4 67 -8 67 -5 0 -7 -19 -6 -42
10 -290 15 -410 18 -445 3 -38 1 -42 -26 -54 -37 -15 -59 -56 -54 -99 6 -47
36 -73 90 -80 l45 -5 64 -135 c75 -160 127 -270 208 -440 33 -69 75 -156 93
-195 33 -72 105 -222 202 -425 79 -165 142 -298 164 -347 18 -42 18 -43 -2
-54 -32 -17 -59 -70 -59 -117 0 -98 69 -152 182 -143 10 0 33 15 52 32 l36 31
52 -29 c29 -16 116 -67 193 -112 77 -46 156 -92 175 -104 19 -11 31 -15 25
-10 -13 14 -395 243 -405 243 -11 0 -41 36 -34 42 3 4 7 23 8 45 6 87 -71 161
-156 150 l-40 -5 -27 61 c-16 34 -61 130 -101 212 -40 83 -92 191 -115 240
-87 185 -138 293 -185 390 -27 55 -71 147 -98 205 -27 58 -71 150 -97 205
-100 210 -116 247 -113 251 2 2 26 -28 54 -66 27 -39 81 -116 121 -171 49 -70
74 -114 78 -143 15 -87 62 -156 123 -177 31 -11 57 -43 206 -254 43 -60 106
-150 142 -200 65 -92 89 -125 321 -452 73 -103 138 -191 144 -197 20 -19 -1
14 -84 130 -43 60 -158 222 -255 359 -98 138 -235 330 -304 428 -111 155 -124
177 -104 177 18 0 45 -28 112 -114 49 -63 93 -115 97 -115 4 -1 -29 45 -74
102 -45 56 -86 107 -91 113 -6 8 73 11 289 10 l298 -1 88 -265 c48 -146 85
-271 82 -277 -2 -7 -11 -13 -19 -13 -8 0 -162 118 -341 263 -179 144 -336 268
-348 276 -45 29 27 -34 148 -129 66 -52 125 -99 132 -105 6 -5 99 -80 206
-165 179 -143 194 -157 186 -178 -14 -38 -11 -52 21 -84 22 -21 37 -29 54 -26
23 5 28 -5 96 -196 39 -111 75 -210 80 -221 10 -23 30 -118 25 -123 -2 -3
-114 132 -244 297 -25 31 -47 58 -50 61 -3 3 -22 25 -41 50 -19 25 -40 52 -47
60 -7 8 -63 78 -125 155 -234 292 -310 385 -315 385 -3 0 1 -8 9 -17 8 -10 90
-112 182 -228 92 -115 198 -248 236 -295 37 -47 124 -155 191 -240 68 -85 126
-157 129 -160 3 -3 21 -24 39 -48 30 -38 32 -45 22 -71 -14 -33 -6 -77 19 -94
9 -6 20 -28 24 -48 5 -31 4 -37 -13 -42 -17 -4 -38 20 -117 132 -54 75 -112
156 -130 179 -18 24 -35 49 -37 55 -2 7 -7 10 -10 7 -3 -3 13 -31 36 -63 134
-181 227 -318 227 -333 0 -12 -6 -15 -21 -11 -17 4 -19 3 -10 -6 6 -6 11 -28
11 -49 0 -72 81 -112 149 -72 26 15 29 14 196 -84 94 -54 238 -138 320 -186
83 -49 166 -97 185 -109 19 -11 31 -15 25 -9 -5 6 -82 53 -170 104 -536 314
-532 311 -527 331 3 14 11 18 28 14 13 -2 24 0 24 4 0 5 -8 9 -18 9 -11 0 -24
12 -31 26 -10 23 -9 28 11 44 13 10 45 36 73 58 l49 39 44 -14 c24 -9 45 -13
48 -11 2 3 -15 10 -38 17 l-42 13 40 34 c21 18 47 33 57 34 10 0 16 4 13 9 -3
5 29 35 71 67 42 33 108 84 148 114 39 30 79 63 89 73 22 21 15 22 78 -7 73
-34 289 -131 366 -164 54 -24 62 -30 57 -49 -3 -13 -1 -23 5 -23 5 0 10 -7 10
-15 0 -8 10 -24 23 -36 18 -17 30 -20 69 -15 45 5 47 3 80 -37 18 -22 45 -55
59 -72 14 -16 37 -43 50 -59 13 -16 29 -34 34 -40 39 -43 42 -42 -93 -39 -70
1 -122 1 -117 -1 20 -9 466 -24 458 -16 -6 6 -19 7 -120 9 l-78 2 -80 96 c-44
53 -95 113 -113 134 -20 23 -30 43 -26 53 3 9 7 16 8 16 1 0 121 -39 267 -88
l264 -87 -37 -36 c-21 -20 -41 -49 -44 -67 -4 -17 -10 -29 -15 -26 -12 7 -12
-9 0 -21 4 -6 11 -21 14 -35 5 -22 0 -29 -53 -58 l-59 -32 -53 64 c-29 35 -55
63 -57 61 -4 -5 80 -108 92 -113 27 -12 -33 -51 -68 -45 -13 3 -16 1 -8 -4 8
-6 -3 -17 -35 -34 -26 -14 -94 -52 -152 -84 -58 -32 -134 -73 -170 -92 -36
-20 -80 -44 -97 -55 -33 -20 -33 -20 -59 1 -34 27 -84 27 -118 0 l-26 -21 -51
32 c-28 17 -53 30 -55 28 -2 -2 21 -19 51 -36 51 -31 55 -36 55 -71 0 -49 30
-88 74 -97 68 -12 131 49 109 106 l-11 28 142 78 c346 191 376 206 390 201 8
-3 17 -19 21 -36 8 -36 24 -51 69 -61 39 -9 96 18 96 45 0 9 7 18 15 21 8 4
15 10 15 16 0 5 -5 6 -10 3 -6 -3 -14 4 -19 17 -11 28 -39 55 -66 60 -16 4
-13 8 19 24 29 14 40 16 43 7 7 -19 67 -52 99 -54 54 -4 93 12 126 50 l33 38
108 -35 c59 -19 107 -39 107 -43 0 -4 -10 -10 -22 -12 -13 -2 -5 -2 17 0 31 3
92 -14 260 -73 121 -42 231 -79 245 -84 14 -4 43 -14 65 -23 22 -8 48 -18 59
-21 35 -12 -1 -32 -61 -36 -32 -1 -76 -4 -98 -5 -70 -5 -248 -17 -305 -20 -30
-2 -70 -4 -87 -4 -18 -1 -33 -5 -33 -10 0 -5 15 -7 33 -6 17 2 88 6 157 10 69
3 143 8 165 10 22 2 85 7 141 10 l101 6 12 -29 c22 -52 97 -69 144 -32 29 23
44 78 29 107 -9 16 14 38 185 173 107 85 200 160 206 166 7 5 82 65 167 133
85 68 164 130 175 139 11 10 40 33 65 52 25 19 56 45 70 57 14 11 77 62 140
112 63 51 122 97 130 104 22 18 263 209 277 220 8 6 24 5 45 -2 93 -33 167 72
103 147 -14 17 -25 34 -25 39 0 5 36 126 81 269 44 142 98 318 120 389 22 72
55 177 74 235 18 58 79 254 135 435 125 407 117 385 145 385 12 0 34 9 49 21
54 42 22 147 -50 165 -19 5 -24 15 -29 62 -4 32 -11 80 -16 107 -7 45 -8 42
-3 -20 3 -38 7 -87 11 -107 5 -33 3 -38 -18 -43 -34 -9 -61 -50 -61 -93 0 -28
7 -43 32 -65 l31 -28 -70 -227 c-68 -223 -163 -530 -336 -1087 -48 -154 -94
-302 -102 -330 -21 -75 -21 -75 -35 -70 -10 4 -14 32 -15 103 0 53 -4 216 -7
362 -3 146 -9 366 -11 490 l-6 225 30 17 c28 15 29 15 25 0 -4 -16 4 -1 32 61
7 15 9 25 4 22 -5 -3 -8 3 -8 12 0 10 -2 25 -6 34 -6 13 14 35 81 90 48 41 90
76 93 79 3 3 30 25 60 50 30 25 64 53 75 64 11 10 50 43 88 73 62 51 85 75 55
57 -12 -7 -172 -140 -226 -188 l-23 -21 10 28 c16 42 13 61 -14 91 -16 17 -34
26 -55 26 -21 0 -29 4 -24 12 4 6 3 8 -3 5 -11 -7 -33 34 -33 63 0 11 5 20 10
20 6 0 10 8 10 19 0 10 7 35 15 55 37 89 57 256 40 345 -1 9 -6 36 -10 61 -19
119 -100 261 -190 334 -30 24 -51 47 -47 51 4 5 2 5 -5 2 -6 -4 -57 14 -113
40 l-102 47 6 35 c3 20 6 47 6 59 0 23 2 24 72 18 39 -4 78 -11 85 -17 9 -9
13 -8 13 0 0 7 3 10 8 8 4 -3 42 -8 85 -11 43 -3 88 -8 100 -10 21 -5 152 -18
189 -20 11 0 20 -12 24 -31 8 -37 47 -92 72 -99 17 -6 16 -12 -11 -92 -15 -47
-26 -88 -24 -90 2 -2 17 35 33 83 28 85 30 88 59 88 95 0 154 119 100 201 -23
36 -64 58 -108 60 -21 1 -44 7 -49 15 -8 11 -9 11 -5 -2 3 -9 -4 -21 -15 -28
-17 -11 -25 -7 -65 25 -25 20 -52 45 -61 54 -10 9 -91 82 -182 161 -91 79
-170 148 -176 154 -6 6 -11 32 -10 59 1 40 -3 51 -24 68 -20 16 -34 19 -73 14
-54 -6 -41 -14 -187 120 -30 28 -73 66 -94 85 -22 19 -59 54 -83 79 -23 24
-43 41 -43 37 0 -4 -9 1 -19 10 -11 9 -17 21 -14 27 3 6 3 8 -1 5 -3 -3 -39
26 -78 65 -39 39 -61 59 -48 44 13 -16 20 -28 15 -28 -15 0 -54 41 -51 54 2 6
1 8 -1 4 -8 -14 -25 -8 -20 6 3 8 -22 40 -61 77 l-67 64 65 -67 c35 -38 61
-68 56 -68 -5 0 -45 33 -90 73 -45 39 -108 95 -141 122 -32 28 -65 57 -74 66
-9 8 -70 62 -136 120 -143 124 -157 139 -150 157 3 7 5 17 5 20 0 4 33 -25 73
-63 l72 -70 -67 70 c-38 39 -68 76 -68 83 0 10 14 12 58 7 108 -12 137 -16
155 -21 9 -3 17 -1 17 4 0 5 -48 15 -107 21 -103 12 -123 20 -123 49 0 8 -7
29 -16 48 -18 37 -82 74 -128 74 -30 0 -86 -26 -101 -47 -11 -14 -13 -13 -583
371 -106 71 -190 131 -188 133 2 2 32 -8 66 -22 34 -14 64 -24 66 -22 2 2 -27
16 -66 32 -64 26 -69 30 -65 53 8 47 -43 103 -93 101 -9 0 -27 -4 -39 -9z
m-73 -130 c-14 -11 -28 -20 -33 -20 -4 0 -121 -53 -260 -119 -138 -65 -258
-120 -266 -123 -8 -2 -24 6 -37 19 -49 49 -132 13 -138 -59 -3 -45 0 -43 -73
-79 -32 -16 -47 -27 -33 -25 24 5 24 4 6 -9 -11 -8 -15 -15 -9 -15 6 0 16 7
23 15 6 8 31 25 55 39 36 20 47 22 61 12 15 -11 15 -16 -1 -68 -18 -56 -18
-56 -54 -53 -20 2 -48 3 -63 4 -22 1 -28 6 -28 24 0 32 -35 84 -72 108 -51 32
-128 22 -173 -21 -18 -18 -36 -44 -40 -57 -7 -28 -4 -28 -285 3 -74 8 -164 17
-200 21 -36 3 -74 7 -85 8 -11 2 -28 4 -37 4 -10 1 -18 5 -18 9 0 10 -2 9 380
93 151 34 280 62 285 63 6 1 26 6 45 10 219 47 914 201 975 215 103 24 105 24
75 1z m105 -50 c30 0 75 20 75 33 0 5 15 -2 34 -17 19 -14 37 -26 39 -26 3 0
85 -54 184 -121 98 -66 253 -171 345 -232 93 -62 168 -115 168 -119 0 -5 -8
-8 -17 -8 -15 0 -15 -2 -4 -9 8 -5 11 -16 8 -25 -6 -15 -19 -16 -94 -12 -49 3
-128 8 -178 11 -49 3 -119 7 -155 10 -75 5 -226 14 -320 20 -240 14 -286 18
-292 22 -5 2 -8 -1 -8 -6 0 -6 17 -11 38 -12 20 0 53 -2 72 -4 19 -2 89 -6
155 -10 66 -3 138 -8 160 -10 22 -1 96 -6 165 -10 69 -4 141 -9 160 -10 19 -2
91 -6 160 -10 69 -4 129 -11 135 -16 5 -5 6 -9 2 -9 -13 0 23 -72 46 -93 12
-10 34 -24 50 -29 30 -11 30 -10 8 -165 -5 -29 -5 -53 -1 -53 4 0 10 33 14 73
12 123 16 137 40 137 11 0 36 9 54 20 18 11 37 18 42 15 9 -6 71 -113 150
-260 24 -44 53 -96 65 -115 11 -19 36 -65 54 -101 33 -64 34 -66 15 -87 -10
-12 -23 -22 -29 -22 -7 0 -11 -25 -11 -67 l1 -66 -83 -43 c-45 -24 -119 -63
-165 -87 -45 -25 -113 -61 -151 -82 l-69 -37 8 79 c4 43 8 85 10 93 1 8 6 49
10 90 4 41 9 82 10 90 7 40 17 164 12 160 -3 -3 -12 -72 -21 -155 -9 -82 -19
-163 -21 -180 -2 -16 -7 -63 -11 -102 -7 -80 -7 -80 -78 -117 l-50 -26 -25 24
c-44 42 -97 49 -162 22 -12 -5 -39 18 -100 86 -46 51 -103 113 -125 138 -23
25 -55 59 -70 76 -38 41 -148 164 -171 190 -10 12 -54 61 -99 110 -45 49 -107
118 -140 154 -32 36 -68 75 -79 86 -11 12 -45 50 -76 85 -31 35 -72 80 -90
100 -19 20 -49 54 -68 75 -19 21 -44 50 -55 63 l-21 23 122 -7 c142 -7 146 -8
199 -29 27 -11 34 -12 22 -2 -10 7 -18 18 -18 25 0 6 -5 11 -11 11 -5 0 -7 -6
-3 -12 6 -10 4 -10 -7 0 -7 6 -18 12 -25 12 -20 0 -417 197 -408 203 8 4 52
-1 134 -16 14 -3 45 -8 70 -12 25 -3 53 -9 63 -11 9 -3 17 -1 17 3 0 5 -56 18
-125 28 -68 10 -122 22 -120 26 3 4 -4 5 -15 2 -39 -10 -19 17 28 38 26 12 85
39 130 61 46 21 107 50 135 63 29 13 104 48 167 78 l115 54 28 -23 c16 -13 39
-24 52 -24z m-490 -380 l180 -89 -105 5 c-134 7 -153 10 -166 29 -6 8 -15 15
-19 15 -4 0 -1 -7 6 -16 12 -15 3 -16 -101 -10 -62 4 -115 8 -117 10 -2 2 4
27 14 56 16 47 21 54 45 55 16 0 36 8 45 18 10 9 22 17 28 17 5 0 91 -41 190
-90z m-1235 15 c25 -2 72 -7 105 -11 33 -4 71 -8 85 -9 36 -3 162 -17 185 -20
11 -1 38 -3 60 -4 39 -1 41 -2 51 -46 l11 -46 -64 -44 c-35 -25 -65 -45 -67
-45 -3 0 -268 -174 -366 -239 -24 -17 -324 -213 -469 -307 l-133 -86 -24 24
c-30 29 -25 48 19 71 44 24 70 69 69 122 l-1 42 105 48 c57 26 103 50 101 52
-2 2 -47 -17 -100 -42 -54 -24 -97 -42 -97 -39 0 5 116 236 216 432 45 86 50
92 75 88 33 -5 85 25 94 54 6 19 12 20 53 15 26 -3 67 -7 92 -10z m888 -90 c2
-2 -7 -37 -21 -79 l-24 -76 -24 21 c-13 12 -36 31 -51 44 l-27 23 17 41 17 41
55 -6 c30 -3 56 -7 58 -9z m250 -10 c22 -4 41 -20 112 -102 45 -52 170 -190
240 -266 30 -33 66 -72 80 -87 14 -15 48 -54 77 -86 28 -33 66 -75 85 -94 18
-20 51 -56 72 -80 33 -38 147 -164 234 -259 13 -14 54 -59 90 -100 37 -40 79
-87 94 -103 l28 -30 -24 -34 c-19 -28 -22 -42 -16 -74 l7 -39 -44 37 c-42 36
-43 37 -21 44 20 7 20 7 -4 4 -16 -2 -28 0 -28 4 0 4 -9 11 -19 16 -11 5 -41
29 -68 54 -26 25 -120 108 -208 185 -88 76 -176 154 -195 172 -19 17 -44 40
-56 50 -12 10 -49 43 -84 73 -35 30 -71 62 -80 70 -9 8 -50 44 -91 80 -40 36
-96 85 -125 110 -128 113 -247 217 -306 271 l-37 34 26 83 26 82 106 -6 c58
-3 116 -7 129 -9z m-608 -74 c0 -4 -53 -45 -117 -91 -65 -46 -168 -120 -230
-164 -158 -114 -233 -168 -436 -311 -98 -70 -208 -149 -244 -176 -36 -27 -67
-48 -69 -46 -2 1 -5 14 -7 27 -3 14 -8 36 -11 50 -5 23 5 32 127 110 112 72
396 257 857 560 78 52 107 66 117 58 7 -6 13 -14 13 -17z m257 -39 l53 -47
-65 -205 c-35 -113 -83 -268 -107 -345 l-44 -140 -53 -7 c-67 -8 -115 -49
-126 -109 -2 -12 -7 -29 -10 -40 -4 -11 -2 -19 4 -19 6 0 11 -5 11 -12 0 -26
50 -75 89 -87 l41 -12 0 -299 c0 -233 -3 -300 -12 -301 -10 0 -10 -2 0 -6 9
-4 12 -87 12 -370 l0 -365 -57 48 c-32 27 -60 51 -63 54 -3 3 -45 41 -95 85
-49 44 -95 84 -101 90 -6 5 -37 33 -70 60 -32 28 -81 70 -109 95 -28 25 -84
74 -123 108 -69 61 -71 65 -57 85 8 12 15 32 15 44 0 16 6 23 20 23 11 0 20 4
20 9 0 5 -8 7 -18 4 -13 -3 -21 5 -30 31 -7 19 -26 47 -41 62 l-28 26 104 227
c58 124 121 261 140 304 24 51 39 73 44 65 4 -7 11 -9 16 -5 4 5 1 12 -6 17
-12 7 -10 18 11 62 14 29 110 235 214 458 103 223 191 410 196 416 5 7 26 10
51 7 29 -3 53 2 77 15 19 11 37 20 40 21 3 0 29 -21 57 -47z m-230 21 c-3 -5
-19 -39 -37 -78 -85 -182 -250 -537 -322 -695 -44 -96 -83 -178 -87 -182 -7
-8 -32 -13 -155 -28 -53 -7 -95 -15 -92 -17 4 -4 130 9 209 23 15 2 27 2 27 0
0 -3 -35 -81 -78 -173 -44 -92 -103 -221 -132 -286 l-54 -117 -39 4 c-22 3
-50 1 -62 -4 -20 -8 -26 -1 -67 78 -24 48 -67 130 -95 182 -99 186 -116 220
-111 226 3 3 47 10 97 17 50 6 91 14 91 17 0 4 -39 1 -87 -6 -49 -8 -95 -14
-103 -14 -9 0 -33 35 -59 86 l-44 85 26 25 c15 14 29 35 33 47 3 12 31 39 62
60 49 33 165 115 517 368 326 233 457 327 499 356 45 31 73 42 63 26z m398
-168 c44 -38 82 -72 85 -75 5 -6 223 -196 274 -240 16 -14 38 -34 50 -46 25
-25 571 -505 638 -560 25 -22 52 -49 58 -61 7 -12 19 -23 26 -25 22 -5 153
-122 151 -135 -1 -6 -51 -68 -112 -137 l-110 -126 -70 0 c-38 0 -76 -4 -83 -9
-7 -4 22 -6 65 -3 81 5 84 2 43 -38 -3 -3 -46 -52 -95 -110 -50 -58 -102 -118
-116 -135 -15 -16 -64 -73 -109 -125 -46 -52 -109 -124 -140 -160 -32 -36 -70
-81 -86 -100 -16 -19 -38 -44 -49 -56 -34 -35 -120 -136 -128 -150 -10 -18
-27 -18 -41 0 -31 41 -265 147 -324 148 -40 0 -106 -23 -201 -72 -33 -16 -67
-27 -75 -24 -14 5 -16 51 -16 380 l0 374 58 1 c31 1 63 1 70 0 6 -1 12 2 12 6
0 5 -32 7 -70 5 l-70 -4 2 303 c2 167 5 302 8 300 3 -2 24 6 46 17 27 14 48
34 60 59 14 28 25 38 39 36 16 -2 15 -1 -4 7 -15 7 -21 15 -17 26 9 24 -18 78
-56 110 l-35 29 103 330 c57 182 104 336 104 344 0 16 3 14 115 -84z m1927 3
c65 -59 119 -107 173 -153 32 -27 65 -57 74 -66 56 -55 423 -370 427 -366 3 2
-9 16 -26 30 -16 14 -30 29 -30 33 0 5 18 -9 40 -31 21 -21 37 -41 35 -45 -6
-10 53 -65 61 -57 9 9 35 -13 29 -23 -5 -7 16 -26 220 -204 95 -84 117 -107
98 -106 -4 1 -159 77 -343 169 l-334 168 2 44 c5 82 -61 147 -140 136 -44 -6
-48 -1 -115 123 -22 41 -55 102 -73 135 -18 33 -42 78 -53 100 -12 22 -23 42
-26 45 -8 7 -51 90 -47 90 2 0 14 -10 28 -22z m-3732 -642 c0 -2 -8 -10 -17
-17 -16 -13 -17 -12 -4 4 13 16 21 21 21 13z m4508 -196 l322 -163 0 -34 c0
-26 8 -42 31 -64 31 -29 31 -30 25 -102 -3 -39 -8 -101 -11 -137 l-4 -65 8 55
c12 73 20 158 21 198 0 39 15 42 29 5 l11 -28 -5 26 c-5 25 7 35 46 43 5 1 81
-64 204 -174 27 -25 86 -77 130 -115 148 -129 145 -125 129 -163 l-14 -33 -68
7 c-37 3 -80 7 -97 9 -16 1 -57 6 -90 9 -33 4 -80 9 -105 12 -25 2 -70 7 -100
10 -30 4 -64 8 -75 9 -11 1 -23 3 -27 4 -3 0 -5 9 -3 19 10 48 12 102 5 102
-5 0 -10 -26 -12 -57 l-3 -58 -40 1 c-22 0 -67 4 -100 7 -33 3 -63 6 -67 6 -4
1 -50 66 -102 146 -53 80 -98 145 -101 145 -2 0 15 -30 40 -67 24 -38 67 -103
95 -146 l50 -78 -32 5 c-18 3 -82 10 -143 16 -193 19 -197 20 -335 36 -40 5
-221 83 -589 255 -57 27 -108 49 -113 49 -6 0 -8 11 -6 25 3 13 1 22 -3 19 -5
-3 -9 -12 -9 -19 0 -12 -9 -11 -42 6 -43 21 -43 21 -42 76 l0 54 52 29 52 28
-1 -31 c0 -18 -4 -53 -8 -79 -4 -27 -5 -48 0 -48 4 0 10 36 14 80 4 43 12 83
19 88 6 5 54 32 106 59 52 28 120 64 150 80 199 107 222 117 232 100 22 -40
98 -58 152 -37 14 5 26 6 26 2 0 -4 12 -20 26 -37 l25 -30 -25 39 c-24 37 -24
40 -8 61 13 17 22 21 37 15 11 -5 165 -81 343 -170z m-4475 145 c17 -16 25
-30 21 -38 -6 -9 -5 -9 7 0 23 18 44 0 22 -19 -33 -28 -47 -33 -40 -14 4 11 3
15 -4 11 -6 -4 -8 -12 -6 -19 6 -15 -172 -141 -183 -130 -5 5 12 45 41 94 27
47 47 92 44 100 -4 8 -3 11 1 8 4 -4 18 2 32 12 31 25 31 25 65 -5z m206 -109
c23 -44 38 -83 34 -87 -5 -3 -64 -14 -133 -24 -69 -9 -127 -19 -129 -21 -8 -7
34 -3 154 15 66 10 123 16 126 12 7 -6 48 -83 180 -337 l79 -151 -29 -32 c-39
-42 -49 -103 -26 -157 l16 -39 -31 -27 c-30 -28 -74 -35 -111 -20 -10 4 -43
40 -74 81 -32 41 -101 129 -154 196 -219 277 -241 307 -241 322 0 9 -3 13 -7
10 -3 -4 -12 1 -19 11 -19 28 4 92 33 92 13 0 23 4 23 9 0 5 -9 7 -21 4 -18
-5 -38 9 -39 28 0 6 116 89 126 89 3 0 3 -7 0 -16 -3 -9 -2 -12 5 -9 5 4 8 12
6 18 -6 19 92 90 142 103 25 6 46 11 47 10 1 0 20 -37 43 -80z m-444 -265
c-10 29 46 33 70 5 33 -37 168 -208 399 -506 l74 -95 -262 3 c-313 3 -381 3
-392 1 -5 -1 -24 -1 -42 0 -30 1 -32 3 -22 24 l11 22 -18 -22 c-16 -19 -31
-23 -115 -27 -54 -3 -98 -3 -98 0 0 5 18 36 210 369 73 127 137 236 143 243 9
11 14 9 29 -10 10 -13 16 -16 13 -7z m3559 -61 c25 -12 46 -26 45 -33 0 -7 -4
-33 -8 -59 -4 -27 -5 -48 -1 -48 4 0 10 23 12 50 3 28 8 53 11 56 3 3 29 -6
59 -19 29 -14 85 -39 123 -57 39 -17 102 -47 140 -65 39 -18 96 -45 128 -59
177 -80 193 -89 145 -81 -13 2 -43 6 -68 9 -201 22 -251 27 -290 31 -96 8
-165 17 -172 22 -5 2 -8 12 -8 21 -1 21 -18 43 -52 64 -24 16 -30 16 -72 2
l-46 -16 -50 48 c-27 26 -47 51 -43 57 3 6 1 7 -4 4 -6 -4 -22 2 -34 13 l-24
19 41 -4 c32 -3 50 2 78 21 20 14 36 29 36 34 0 13 0 13 54 -10z m-172 -91
c35 -31 75 -67 91 -80 26 -22 27 -26 15 -56 l-12 -33 -75 0 c-41 0 -71 -3 -67
-7 3 -4 40 -6 81 -5 66 2 74 0 80 -18 3 -11 17 -28 31 -39 13 -10 24 -25 25
-32 0 -11 2 -11 6 -1 2 6 14 12 24 12 11 0 29 5 40 11 18 9 35 -5 147 -119
204 -209 186 -184 172 -228 -10 -29 -13 -187 -14 -640 l-1 -601 -79 -89 c-43
-49 -103 -118 -135 -153 -31 -36 -61 -70 -68 -77 -7 -6 -37 -15 -67 -19 -39
-4 -56 -11 -56 -21 0 -8 -5 -14 -11 -14 -6 0 -23 -13 -38 -29 l-28 -30 -74 18
c-41 11 -66 20 -56 21 9 1 20 3 25 4 4 1 44 8 90 15 45 8 81 16 78 18 -2 3
-40 -1 -83 -8 -97 -17 -129 -17 -126 -3 1 6 11 67 23 135 11 68 23 135 25 149
56 316 107 635 108 670 2 63 -21 136 -54 171 -27 29 -28 33 -18 75 7 25 9 47
6 50 -3 3 -8 -13 -12 -35 -4 -23 -11 -43 -15 -46 -5 -3 -39 10 -77 29 -98 49
-171 77 -207 78 -40 1 -111 -24 -208 -73 -103 -52 -143 -88 -163 -150 -15 -45
-22 -159 -11 -177 2 -4 7 -28 11 -52 3 -25 10 -63 15 -85 5 -22 11 -62 15 -90
3 -27 10 -68 15 -90 5 -22 11 -58 14 -80 4 -22 15 -92 26 -155 10 -63 22 -135
25 -160 3 -25 8 -53 11 -63 5 -15 2 -18 -13 -14 -25 7 -496 121 -590 142 -27
6 -28 16 -8 121 8 44 17 99 20 124 4 24 8 47 10 50 1 3 6 27 9 54 4 27 9 52
11 55 1 3 6 29 9 56 4 28 15 97 25 153 19 106 18 160 -5 224 -10 29 -10 39 -1
45 7 5 25 24 41 43 16 19 55 64 86 100 32 36 95 108 141 160 45 52 106 122
135 155 29 33 62 71 74 85 44 52 67 77 130 150 36 41 77 88 92 105 14 16 40
46 57 65 30 35 31 35 122 39 50 1 87 6 81 10 -6 3 -44 4 -85 1 -49 -3 -73 -1
-69 5 17 29 206 235 213 233 4 -2 36 -28 71 -59z m408 -193 c30 -4 82 -9 115
-12 33 -3 74 -7 90 -9 17 -2 59 -6 95 -10 200 -21 188 -18 375 -105 129 -60
211 -97 225 -103 18 -6 9 -7 -325 -11 -310 -4 -314 -5 -381 -68 l-31 -29 -149
151 c-82 83 -150 153 -152 154 -1 2 3 15 9 29 10 22 17 26 43 22 17 -2 56 -6
86 -9z m675 -71 c33 -3 78 -8 100 -10 22 -3 69 -8 105 -11 36 -4 76 -8 90 -9
14 -2 37 -3 51 -4 21 -1 36 -15 73 -71 25 -38 46 -72 46 -75 0 -2 -45 -2 -100
0 -80 5 -113 11 -158 32 -361 165 -358 164 -312 159 25 -3 72 -8 105 -11z
m578 -64 c5 -5 5 -36 1 -70 l-7 -62 -45 6 c-25 3 -46 6 -47 7 -28 40 -85 129
-85 133 0 9 173 -5 183 -14z m-4255 -127 c2 -1 0 -13 -3 -26 l-6 -25 -60 21
-59 21 27 26 28 25 35 -20 c19 -11 36 -21 38 -22z m172 23 c23 -20 157 -138
220 -193 148 -128 378 -330 403 -354 18 -16 35 -30 40 -30 15 0 6 -42 -14 -63
-11 -12 -27 -33 -34 -47 -17 -32 -33 -119 -28 -151 7 -46 55 -344 59 -364 14
-71 14 -72 -13 -84 -32 -15 -20 -27 -173 169 -66 85 -126 162 -133 170 -6 8
-61 77 -120 152 l-108 137 7 73 c3 40 1 102 -5 138 -21 127 -114 268 -221 336
-40 26 -45 32 -40 58 4 25 10 30 40 33 19 2 46 12 60 23 32 24 31 24 60 -3z
m-1008 -391 l1 -61 6 64 6 65 145 -1 c80 0 159 -1 175 -2 l30 -1 -51 -48 c-28
-26 -86 -78 -129 -117 -44 -38 -102 -91 -129 -117 -29 -26 -53 -42 -57 -36 -4
5 -9 -1 -13 -14 -4 -12 -22 -36 -41 -51 l-35 -29 0 204 c0 113 2 207 4 209 3
3 23 3 45 1 l41 -4 2 -62z m4792 60 c50 -3 93 -9 98 -14 4 -4 -5 -21 -20 -37
-15 -17 -56 -64 -92 -105 -36 -41 -82 -93 -102 -115 -20 -22 -46 -52 -58 -67
-12 -16 -27 -28 -34 -28 -7 0 -46 36 -87 80 -40 44 -78 80 -84 80 -5 0 30 -40
79 -89 l89 -89 -40 -44 c-22 -23 -60 -66 -84 -95 -24 -28 -48 -52 -54 -52 -8
-1 -10 220 -3 379 0 8 -1 42 -2 75 -4 114 -2 123 23 127 32 4 266 1 371 -6z
m-4286 -17 c95 -21 161 -71 183 -139 47 -139 -29 -301 -161 -345 -69 -23 -115
-27 -336 -28 -175 -2 -204 0 -205 13 0 13 -1 13 -7 0 -4 -8 -16 -14 -27 -14
-11 1 -26 2 -32 3 -9 1 -13 19 -13 53 0 47 3 54 37 85 34 29 39 31 46 15 6
-13 7 -12 3 5 -3 15 5 29 24 45 15 13 65 57 111 99 108 98 179 163 221 200 35
31 50 32 156 8z m4491 -34 c52 -26 60 -40 56 -97 -2 -29 -7 -102 -10 -163 -4
-60 -8 -128 -10 -150 -2 -22 -3 -52 -4 -66 -1 -22 -11 -30 -58 -52 -83 -37
-104 -39 -350 -44 -169 -4 -223 -2 -223 7 0 11 36 53 167 199 l22 25 90 -93
c50 -52 91 -89 91 -84 0 4 -38 46 -85 93 -47 47 -85 87 -85 91 0 3 8 15 18 26
19 23 119 137 142 163 86 98 137 155 148 166 13 14 33 9 91 -21z m100 -103
c11 -21 24 -62 29 -91 9 -51 9 -71 -4 -151 -6 -39 -44 -109 -70 -131 -10 -8
-15 -9 -12 -4 3 6 9 69 13 140 4 72 9 150 10 175 2 25 4 57 4 73 1 36 7 34 30
-11z m-3910 -294 c44 -57 118 -152 166 -213 47 -60 91 -117 98 -125 7 -8 43
-54 79 -103 l67 -87 -22 -33 c-21 -32 -24 -33 -62 -24 -22 5 -47 10 -55 12 -8
2 -28 6 -45 10 -21 4 -26 3 -15 -3 8 -6 31 -13 50 -16 95 -17 105 -21 108 -46
1 -14 10 -42 19 -63 l16 -38 -34 -36 c-19 -20 -38 -42 -44 -48 -5 -7 -55 -62
-109 -123 l-99 -112 -94 0 c-52 0 -93 3 -91 8 2 4 16 31 31 60 15 29 35 80 44
115 18 71 21 238 4 280 -20 52 -16 59 32 53 30 -4 36 -3 22 3 -11 5 -31 10
-45 11 -20 0 -32 14 -60 61 -19 34 -59 83 -88 110 -49 45 -198 129 -228 129
-28 0 -13 16 47 50 95 55 180 155 212 253 4 9 8 17 11 17 3 0 41 -46 85 -102z
m4309 -267 c8 -24 7 -32 -5 -42 -24 -21 -34 -56 -22 -86 6 -15 14 -30 19 -33
5 -3 -11 -37 -36 -75 -62 -97 -73 -110 -87 -96 -8 8 6 60 49 190 32 98 62 177
66 175 3 -2 11 -17 16 -33z m-52 -18 c-6 -21 -31 -97 -56 -170 -42 -127 -45
-131 -74 -136 -17 -2 -38 -7 -47 -11 -11 -5 -36 15 -87 66 l-72 73 50 17 c108
36 230 114 274 172 10 15 20 26 21 26 2 0 -2 -17 -9 -37z m-5956 -253 c0 -131
-3 -180 -12 -180 -6 0 -55 14 -108 31 l-96 31 -10 44 -10 44 80 73 c44 39 96
87 116 104 19 18 36 33 38 33 1 0 2 -81 2 -180z m613 -118 c48 -147 87 -270
87 -274 0 -13 -18 -9 -151 33 l-129 41 0 192 c0 146 4 203 15 237 15 43 16 44
53 41 l39 -4 86 -266z m392 258 c112 -19 134 -28 129 -53 -4 -23 -8 -42 -24
-137 -15 -86 -21 -121 -31 -180 -6 -30 -13 -72 -16 -92 -5 -34 -9 -38 -35 -38
-44 0 -92 -24 -121 -61 l-26 -33 -53 11 c-29 6 -66 17 -83 24 -16 7 -33 12
-36 11 -4 -1 -5 6 -3 16 3 9 -34 134 -80 276 -47 143 -83 262 -81 265 5 10
396 2 460 -9z m-572 -10 c-3 -11 -7 -20 -9 -20 -2 0 -4 9 -4 20 0 11 4 20 9
20 5 0 7 -9 4 -20z m810 -103 c36 -44 57 -123 52 -199 -4 -79 -45 -160 -101
-200 l-41 -29 -39 22 c-21 13 -41 24 -43 25 -2 2 2 25 8 51 5 26 13 64 15 83
3 19 7 44 9 55 3 11 8 38 12 60 4 22 9 49 11 60 2 11 6 29 8 40 2 11 7 39 11
63 l7 43 31 -20 c18 -11 45 -35 60 -54z m4806 22 c-24 -21 -45 -36 -47 -35 -1
2 -21 -15 -42 -37 -22 -22 -40 -37 -40 -33 0 3 20 37 45 74 43 64 46 67 87 68
l41 2 -44 -39z m-364 -55 c50 -50 72 -80 67 -88 -28 -35 -15 -117 20 -128 9
-3 3 -20 -19 -56 -19 -31 -30 -59 -27 -70 4 -12 3 -13 -3 -4 -7 9 -33 -22 -92
-112 -84 -126 -91 -132 -127 -104 -6 5 -10 23 -9 41 2 17 6 85 10 150 8 135
11 166 16 172 2 2 47 11 99 20 52 9 97 18 99 21 7 7 -9 5 -99 -11 -47 -8 -89
-15 -94 -15 -5 0 -6 48 -3 108 4 59 6 115 7 124 0 15 18 23 63 27 10 0 50 -32
92 -75z m-171 4 c-4 -54 -12 -163 -13 -185 -1 -7 -13 -14 -28 -14 l-28 -2 28
-4 28 -4 -7 -107 c-4 -59 -8 -125 -9 -147 -2 -22 -3 -55 -4 -72 -1 -25 -5 -33
-20 -33 -35 0 -81 -34 -99 -73 -17 -37 -18 -38 -62 -33 -25 3 -67 8 -95 11
-27 3 -63 7 -80 10 -16 2 -64 7 -105 11 -41 4 -82 8 -90 10 -8 1 -17 3 -20 3
-5 1 -5 53 0 309 0 17 6 22 28 23 l27 2 -27 4 c-16 2 -28 10 -29 16 -1 13 -1
232 0 284 l1 32 256 0 c141 0 258 2 260 4 2 2 23 4 48 6 l44 2 -4 -53z m-1028
-235 l-1 -128 -30 -6 -30 -7 31 -1 31 -1 0 -104 c1 -101 0 -104 -21 -101 -11
2 -46 6 -76 9 -47 5 -109 12 -185 21 -11 1 -23 3 -27 4 -5 0 -8 9 -8 19 0 10
-5 23 -11 29 -18 18 37 83 70 84 22 0 23 2 7 8 -19 7 -19 8 0 27 11 10 49 53
84 94 36 41 78 90 95 108 16 18 36 42 45 52 8 11 18 20 21 20 3 0 6 -57 5
-127z m-4595 71 l109 -35 0 -161 c0 -89 -2 -159 -4 -157 -2 2 -60 82 -129 178
-115 163 -123 176 -108 193 8 10 17 18 19 18 2 0 53 -16 113 -36z m2270 -48
c19 -7 39 -12 45 -9 7 2 14 -14 19 -42 3 -26 9 -57 11 -68 3 -12 7 -40 10 -62
3 -22 9 -57 14 -77 l8 -38 -215 0 c-245 0 -232 -10 -133 97 30 33 86 94 123
137 38 42 72 76 77 76 4 0 23 -6 41 -14z m684 -38 c22 -6 47 -12 55 -13 8 -2
74 -18 145 -35 72 -18 137 -33 145 -35 89 -20 196 -48 202 -53 3 -4 9 -33 13
-64 l6 -58 -351 0 c-273 0 -350 3 -350 13 0 10 14 92 34 207 3 14 5 33 5 43 1
18 3 18 96 -5z m2981 -80 c1 -51 4 -194 7 -318 19 -670 20 -780 4 -780 -31 0
-58 -34 -65 -84 l-7 -49 -140 -48 c-77 -27 -211 -74 -298 -106 -145 -52 -159
-55 -174 -40 -15 15 -9 23 73 101 70 67 93 85 109 79 63 -20 120 5 130 55 5
30 -13 79 -32 86 -9 4 -13 13 -9 22 6 15 4 15 -10 3 -15 -12 -16 -11 -11 16 3
17 9 57 12 90 6 67 15 147 20 185 2 14 7 50 10 80 4 30 22 88 41 128 19 41 34
77 34 80 0 4 14 16 30 27 39 26 60 71 58 126 0 25 4 54 10 65 7 10 34 71 63
134 97 219 108 240 127 240 16 0 18 -11 18 -92z m-5249 -48 c195 -61 193 -76
-9 -74 -73 1 -136 2 -140 3 -5 0 -8 28 -8 61 0 43 3 58 13 55 6 -2 72 -22 144
-45z m5109 -61 c-18 -41 -46 -102 -61 -136 l-28 -63 -19 25 -19 25 77 115 c42
64 78 114 80 112 3 -2 -11 -37 -30 -78z m-4906 -4 l25 -14 -34 3 c-19 1 -37 8
-39 14 -5 16 17 15 48 -3z m3381 -9 c-17 -18 -28 -23 -44 -17 -32 12 -32 29 0
34 67 10 69 9 44 -17z m-228 -61 c33 -7 60 -15 61 -17 1 -2 7 -19 14 -38 l12
-35 -68 -68 -67 -67 -34 28 c-32 27 -33 29 -22 67 6 22 11 57 11 77 0 44 8 68
24 68 6 -1 37 -7 69 -15z m-2133 -12 c0 -3 -137 -158 -185 -209 -5 -6 -37 -42
-70 -80 -33 -38 -82 -94 -110 -124 -284 -318 -292 -325 -292 -309 0 8 -3 30
-6 49 -3 19 -9 58 -12 85 -4 28 -8 61 -11 75 -2 14 -7 48 -10 75 -3 28 -7 59
-9 70 -1 11 -6 45 -10 76 l-7 56 59 6 c197 21 328 75 432 181 l51 51 90 0 c49
1 90 -1 90 -2z m465 -5 c3 -3 9 -21 11 -40 3 -18 21 -123 40 -233 35 -196 63
-360 69 -400 1 -11 10 -65 19 -120 9 -55 19 -115 22 -132 3 -18 9 -33 14 -33
4 0 6 8 3 19 -4 14 45 57 229 200 128 100 247 192 263 206 17 13 53 41 80 61
28 21 52 41 55 44 3 3 34 28 70 55 36 27 88 68 115 90 28 22 66 51 84 65 70
53 92 73 86 78 -3 4 -9 2 -13 -3 -4 -6 -45 -39 -92 -75 -47 -35 -87 -67 -90
-70 -3 -3 -34 -28 -70 -55 -36 -27 -79 -60 -96 -74 -41 -34 -58 -47 -129 -101
-33 -25 -62 -47 -65 -50 -3 -3 -66 -53 -140 -110 -140 -109 -229 -179 -267
-211 -26 -21 -26 -21 -43 81 -5 36 -12 76 -15 90 -9 52 -57 329 -74 434 l-18
110 23 -27 c42 -49 97 -70 169 -65 115 10 178 77 192 208 3 30 7 57 10 60 6 6
704 7 708 0 1 -3 6 -34 9 -69 4 -35 13 -76 21 -91 13 -26 67 -79 98 -97 13 -7
9 -33 -22 -177 l-37 -168 -188 -184 c-104 -102 -187 -187 -184 -189 2 -2 80
72 173 165 94 93 174 170 179 170 5 0 6 -15 3 -32 -6 -34 -7 -40 -26 -118 -11
-47 -14 -76 -7 -69 2 2 16 58 31 124 15 66 31 125 37 132 5 7 7 16 4 21 -3 5
9 77 27 158 l34 149 69 6 c56 4 79 11 112 35 23 16 44 37 48 47 7 23 16 22 50
-8 l29 -25 -165 -161 c-91 -89 -160 -160 -153 -158 7 2 82 73 167 158 l155
154 33 -28 c124 -104 132 -114 131 -163 0 -40 0 -41 4 -9 2 20 7 37 10 37 6 0
127 -103 148 -126 6 -6 44 -39 85 -75 41 -35 84 -73 95 -84 12 -11 44 -40 72
-65 27 -25 87 -78 132 -119 45 -41 98 -86 116 -100 19 -14 34 -31 35 -36 0 -6
-37 -53 -82 -105 -45 -52 -73 -87 -61 -77 11 10 49 51 84 92 35 41 66 75 70
75 3 0 17 -10 31 -22 13 -13 53 -48 88 -78 35 -30 79 -69 98 -86 l35 -31 -87
-57 c-52 -34 -84 -61 -80 -68 4 -6 3 -8 -3 -5 -6 4 -37 -4 -69 -18 -111 -46
-440 -146 -460 -139 -14 4 -15 3 -6 -4 11 -7 9 -11 -10 -15 -12 -2 -99 -30
-192 -60 l-168 -55 6 71 c13 143 17 182 22 205 2 12 1 22 -4 22 -5 0 -9 -6 -9
-12 0 -13 -8 -101 -19 -223 -4 -33 -9 -63 -13 -66 -3 -3 -28 -13 -56 -22 -27
-8 -143 -45 -257 -82 l-208 -67 -75 38 c-41 21 -75 38 -75 39 0 1 11 52 25
113 14 61 25 117 24 124 -1 17 -12 -24 -39 -143 l-21 -95 -32 4 c-29 3 -429
130 -534 169 -36 13 -43 20 -43 42 0 15 -5 32 -10 37 -7 7 72 91 241 258 138
136 250 249 248 251 -2 2 -115 -107 -252 -241 -136 -134 -252 -244 -257 -244
-5 0 -12 5 -15 10 -3 6 -15 10 -25 10 -22 0 -21 -4 -49 165 -11 66 -23 136
-26 155 -15 86 -25 146 -25 153 0 4 -4 7 -10 7 -5 0 -7 -6 -5 -12 3 -7 21
-110 40 -228 20 -118 38 -222 41 -231 3 -10 -3 -19 -13 -22 -10 -4 -25 -12
-34 -18 -13 -10 -59 7 -253 93 l-237 106 68 53 c37 30 75 59 83 66 8 7 77 60
153 119 75 59 135 109 133 112 -3 2 -97 -68 -209 -156 -112 -88 -213 -166
-224 -173 -21 -12 -42 -4 -388 152 -22 10 -125 56 -230 103 -213 95 -194 77
-209 204 l-6 54 102 115 c57 63 113 127 126 142 13 14 40 44 60 67 54 58 155
172 272 304 55 63 108 117 116 120 21 8 431 6 439 -2z m1990 -42 c118 -12 181
-19 195 -22 8 -1 20 -3 26 -3 5 -1 18 -28 28 -61 54 -178 291 -198 373 -32 18
37 30 51 42 48 9 -3 45 -7 81 -11 61 -6 98 -10 180 -19 19 -2 65 -7 103 -11
60 -7 67 -10 67 -29 0 -11 9 -35 19 -52 18 -29 18 -33 3 -48 -9 -9 -11 -16 -5
-16 6 0 13 7 17 15 4 12 10 13 38 1 18 -8 33 -18 33 -23 -3 -101 -20 -161 -94
-325 -96 -215 -106 -236 -146 -323 -17 -38 -44 -97 -59 -130 -25 -56 -32 -63
-92 -95 -39 -20 -68 -30 -72 -24 -4 5 -47 45 -97 88 -49 43 -112 100 -140 125
-27 25 -111 100 -185 166 -74 66 -140 125 -146 130 -18 17 -161 145 -182 163
-53 46 -157 139 -169 151 -12 11 -14 30 -8 90 15 168 20 191 45 191 10 0 31
15 46 34 15 19 32 33 38 31 6 -2 34 -6 61 -9z m-180 -66 c-2 -3 -6 -41 -10
-85 -4 -44 -10 -99 -14 -122 l-6 -41 -77 71 -77 72 69 67 c64 62 71 66 94 55
13 -6 23 -14 21 -17z m-3008 -148 c1 -9 5 -41 9 -71 3 -30 7 -62 9 -70 2 -9
13 -91 26 -184 l22 -167 -23 -25 c-16 -17 -27 -22 -34 -15 -5 5 -22 10 -36 10
-24 0 -29 7 -55 88 -16 48 -55 167 -87 265 -32 98 -58 180 -58 181 0 2 46 4
102 5 56 1 104 4 107 7 7 6 15 -4 18 -24z m4425 -84 c-11 -23 -22 -50 -25 -58
-7 -20 -8 49 -1 77 5 18 31 35 42 27 2 -1 -5 -22 -16 -46z m-77 -324 c-22
-217 -24 -224 -44 -224 -10 0 -31 -12 -46 -26 -23 -21 -27 -31 -22 -64 5 -38
4 -38 -69 -89 -41 -28 -77 -51 -79 -51 -3 0 -1 8 5 18 5 9 33 69 61 132 28 63
66 147 83 185 18 39 52 116 76 172 25 55 46 100 48 98 2 -1 -4 -70 -13 -151z
m-4260 -242 c-1 -1 -10 0 -19 4 -10 4 -16 18 -16 36 0 16 -4 38 -10 48 -7 14
-6 23 7 36 17 17 18 14 29 -52 7 -38 11 -70 9 -72z m-12 -14 c11 -9 21 -44 31
-113 29 -192 40 -292 33 -285 -3 3 -35 88 -71 189 l-67 183 22 19 c26 22 30
23 52 7z m163 -72 c65 -29 139 -63 164 -74 25 -12 131 -59 237 -106 106 -47
204 -91 219 -99 l26 -14 -88 -68 c-49 -38 -91 -72 -94 -75 -3 -3 -42 -34 -87
-68 l-82 -62 -88 -2 -88 -2 84 -3 83 -4 -38 -29 c-22 -16 -45 -30 -51 -30 -7
0 -13 -4 -13 -9 0 -4 -27 -29 -60 -55 l-59 -47 -43 14 c-31 11 -44 22 -49 40
-8 31 -3 37 28 37 13 0 35 11 48 24 13 13 32 23 42 22 10 -2 12 -1 6 1 -19 7
-16 31 5 36 13 4 11 5 -5 6 -13 0 -23 6 -23 13 0 27 -43 58 -81 58 -34 0 -38
3 -47 33 -6 17 -13 57 -17 87 -4 30 -8 62 -10 71 -1 8 -6 42 -9 75 -4 32 -9
66 -11 74 -4 15 -14 90 -20 145 -2 17 -4 35 -5 40 -3 13 -1 25 3 25 2 0 57
-24 123 -54z m3914 -126 c-47 -44 -88 -80 -92 -80 -14 0 -8 19 15 44 20 24
146 116 157 116 3 0 -33 -36 -80 -80z m559 56 c-8 -6 -174 -139 -369 -296
-195 -156 -512 -410 -703 -563 -191 -154 -350 -278 -352 -276 -3 4 88 119 374
475 58 71 109 134 115 140 6 6 47 57 91 113 l79 101 48 -6 c43 -6 50 -4 78 24
20 21 30 40 30 61 0 34 -3 32 115 75 374 133 491 173 499 168 5 -3 3 -10 -5
-16z m-664 -115 c-3 -6 -14 -11 -23 -11 -13 0 -13 2 4 14 21 15 30 14 19 -3z
m-135 -105 c0 -18 -9 -27 -42 -39 -58 -21 -94 -31 -87 -24 12 14 115 86 122
87 4 0 7 -11 7 -24z m10 -45 c0 -5 -17 -23 -37 -40 -21 -18 -65 -58 -98 -89
-101 -95 -99 -94 -131 -82 -56 22 -114 -17 -114 -76 0 -29 -5 -35 -42 -52 -24
-11 -162 -74 -307 -141 -146 -66 -267 -119 -269 -116 -2 2 47 38 109 79 63 40
182 120 264 176 404 275 416 283 515 316 109 37 110 37 110 25z m13 -34 c-7
-13 -210 -266 -226 -282 -6 -7 -7 -3 -3 11 4 12 2 34 -4 49 -10 26 -7 31 57
89 37 33 90 82 117 108 46 42 77 55 59 25z m-273 -41 c0 -5 -380 -264 -618
-422 l-124 -82 -35 24 c-20 13 -39 24 -43 24 -4 0 -4 20 0 45 4 25 3 45 -2 45
-4 0 -8 -17 -8 -39 0 -42 -10 -55 -52 -65 -15 -3 -40 -20 -56 -37 l-29 -31
-173 58 -172 58 174 57 c95 31 207 66 248 79 41 12 104 32 140 45 76 27 256
85 265 85 8 0 -24 -40 -104 -129 -34 -39 -61 -71 -58 -71 3 0 49 50 102 110
54 61 103 110 109 110 8 0 284 89 434 139 1 1 2 -1 2 -3z m-88 -277 c22 -16
38 -20 65 -16 33 6 34 5 20 -11 -8 -9 -63 -78 -123 -152 -267 -334 -263 -330
-289 -318 -30 14 -71 3 -99 -25 l-23 -23 -119 42 c-65 23 -173 61 -239 84 -66
23 -149 52 -185 66 -36 13 -119 42 -185 64 l-120 41 0 39 c0 35 4 41 28 49 23
9 59 0 211 -51 166 -56 184 -64 184 -85 0 -20 -7 -23 -59 -29 -33 -4 -59 -10
-59 -14 0 -4 19 -4 43 1 65 12 73 11 87 -17 29 -53 109 -70 167 -34 39 23 53
49 56 97 l2 37 120 55 c66 30 201 92 300 137 99 46 182 84 183 84 2 0 17 -10
34 -21z m-1272 -139 c12 -8 9 -10 -12 -10 -16 0 -28 5 -28 10 0 13 20 13 40 0z
m-438 -242 c-6 -6 -15 -8 -19 -4 -4 4 -1 11 7 16 19 12 27 3 12 -12z"/>
<path d="M3875 6618 c-11 -6 -21 -12 -22 -12 -1 -1 -9 -19 -18 -39 -15 -38
-15 -38 14 -67 44 -45 101 -36 134 20 38 64 -41 136 -108 98z"/>
<path d="M3401 6456 c5 -5 30 -10 99 -20 97 -14 118 -17 140 -21 13 -3 42 -7
65 -10 22 -4 83 -13 135 -21 52 -8 106 -17 120 -19 14 -2 85 -13 158 -25 73
-12 135 -20 138 -18 2 3 -58 15 -133 27 -172 28 -171 28 -213 35 -49 8 -277
44 -325 51 -22 3 -67 10 -100 15 -66 11 -91 12 -84 6z"/>
<path d="M4270 6321 c0 -6 15 -11 33 -11 17 -1 76 -9 130 -19 53 -9 97 -15 97
-11 0 3 -51 14 -112 24 -62 9 -121 19 -130 22 -10 3 -18 1 -18 -5z"/>
<path d="M4540 6276 c0 -2 11 -6 25 -8 14 -3 25 -1 25 3 0 5 -11 9 -25 9 -14
0 -25 -2 -25 -4z"/>
<path d="M3630 6220 c19 -11 40 -19 45 -19 6 0 -6 8 -25 19 -19 11 -39 19 -45
19 -5 0 6 -8 25 -19z"/>
<path d="M3690 6195 c0 -7 81 -47 86 -43 2 3 -17 14 -41 26 -25 12 -45 20 -45
17z"/>
<path d="M3790 6147 c10 -10 232 -118 236 -114 2 2 -46 28 -108 58 -118 57
-136 65 -128 56z"/>
<path d="M4041 6026 c2 -2 15 -9 29 -15 24 -11 24 -11 6 3 -16 13 -49 24 -35
12z"/>
<path d="M4107 5989 c7 -7 15 -10 18 -7 3 3 -2 9 -12 12 -14 6 -15 5 -6 -5z"/>
<path d="M4160 5965 c14 -8 30 -14 35 -14 6 0 -1 6 -15 14 -14 8 -29 14 -35
14 -5 0 1 -6 15 -14z"/>
<path d="M4210 5945 c0 -7 81 -47 86 -43 2 3 -17 14 -41 26 -25 12 -45 20 -45
17z"/>
<path d="M4317 5889 c7 -7 15 -10 18 -7 3 3 -2 9 -12 12 -14 6 -15 5 -6 -5z"/>
<path d="M4350 5876 c0 -2 7 -7 16 -10 8 -3 12 -2 9 4 -6 10 -25 14 -25 6z"/>
<path d="M4415 5840 c3 -5 11 -10 16 -10 6 0 7 5 4 10 -3 6 -11 10 -16 10 -6
0 -7 -4 -4 -10z"/>
<path d="M4480 5810 c19 -11 40 -19 45 -19 6 0 -6 8 -25 19 -19 11 -39 19 -45
19 -5 0 6 -8 25 -19z"/>
<path d="M4710 5801 c0 -50 -12 -91 -24 -84 -6 4 -5 -1 2 -10 8 -9 11 -21 7
-27 -3 -5 -1 -10 4 -10 6 0 11 7 11 15 0 9 6 12 18 9 16 -5 16 -5 0 6 -15 9
-17 20 -11 70 3 33 3 60 -1 60 -3 0 -6 -13 -6 -29z"/>
<path d="M4547 5779 c7 -7 15 -10 18 -7 3 3 -2 9 -12 12 -14 6 -15 5 -6 -5z"/>
<path d="M4594 5756 c11 -9 24 -16 30 -16 12 0 7 5 -24 19 -24 11 -24 11 -6
-3z"/>
<path d="M4640 5736 c0 -2 7 -7 16 -10 8 -3 12 -2 9 4 -6 10 -25 14 -25 6z"/>
<path d="M4750 5685 c0 -7 61 -37 66 -33 2 3 -12 12 -31 21 -19 9 -35 15 -35
12z"/>
<path d="M4870 5620 c8 -5 20 -10 25 -10 6 0 3 5 -5 10 -8 5 -19 10 -25 10 -5
0 -3 -5 5 -10z"/>
<path d="M4910 5606 c0 -2 7 -7 16 -10 8 -3 12 -2 9 4 -6 10 -25 14 -25 6z"/>
<path d="M4970 5576 c0 -2 7 -7 16 -10 8 -3 12 -2 9 4 -6 10 -25 14 -25 6z"/>
<path d="M5017 5549 c7 -7 15 -10 18 -7 3 3 -2 9 -12 12 -14 6 -15 5 -6 -5z"/>
<path d="M5051 5536 c2 -2 15 -9 29 -15 24 -11 24 -11 6 3 -16 13 -49 24 -35
12z"/>
<path d="M3096 6429 c59 -66 72 -79 79 -79 9 0 -75 94 -90 99 -5 2 0 -7 11
-20z"/>
<path d="M2020 6040 c-9 -6 -10 -10 -3 -10 6 0 15 5 18 10 8 12 4 12 -15 0z"/>
<path d="M1960 6010 c-9 -6 -10 -10 -3 -10 6 0 15 5 18 10 8 12 4 12 -15 0z"/>
<path d="M1875 5970 c-3 -6 1 -7 9 -4 18 7 21 14 7 14 -6 0 -13 -4 -16 -10z"/>
<path d="M1830 5950 c-9 -6 -10 -10 -3 -10 6 0 15 5 18 10 8 12 4 12 -15 0z"/>
<path d="M1790 5930 c-9 -6 -10 -10 -3 -10 6 0 15 5 18 10 8 12 4 12 -15 0z"/>
<path d="M1745 5910 c-3 -6 1 -7 9 -4 18 7 21 14 7 14 -6 0 -13 -4 -16 -10z"/>
<path d="M2390 5270 c-27 -6 -29 -8 -10 -8 14 -1 43 3 65 7 33 7 35 9 10 9
-16 -1 -46 -4 -65 -8z"/>
<path d="M2329 5266 c-2 -2 -26 -7 -54 -11 -27 -3 -52 -9 -55 -12 -3 -2 20 -2
50 2 30 4 61 8 68 8 6 0 12 4 12 9 0 8 -13 11 -21 4z"/>
<path d="M2498 4553 c-43 -2 -78 -7 -78 -11 0 -10 143 -2 155 9 5 5 7 8 5 7
-3 -1 -40 -4 -82 -5z"/>
<path d="M2590 4550 c0 -5 5 -10 10 -10 6 0 10 5 10 10 0 6 -4 10 -10 10 -5 0
-10 -4 -10 -10z"/>
<path d="M2310 4540 l-55 -7 58 -1 c32 -1 57 2 57 8 0 6 -1 9 -2 8 -2 -1 -28
-4 -58 -8z"/>
<path d="M2385 4540 c-3 -6 1 -7 9 -4 18 7 21 14 7 14 -6 0 -13 -4 -16 -10z"/>
<path d="M2130 4532 c-46 -2 -80 -7 -80 -13 0 -6 4 -8 8 -5 4 2 49 6 100 7 51
2 92 6 92 10 0 4 -9 7 -20 6 -11 -1 -56 -3 -100 -5z"/>
<path d="M1812 5192 c-51 -8 -91 -16 -89 -19 8 -7 187 20 187 29 0 4 -1 7 -2
7 -2 -1 -45 -8 -96 -17z"/>
<path d="M2835 5269 c3 -4 18 -9 34 -11 17 -2 28 -1 26 3 -3 4 -18 9 -34 11
-17 2 -28 1 -26 -3z"/>
<path d="M2918 5253 c6 -2 18 -2 25 0 6 3 1 5 -13 5 -14 0 -19 -2 -12 -5z"/>
<path d="M3010 5236 c0 -2 11 -6 25 -8 13 -3 22 -1 19 3 -5 9 -44 13 -44 5z"/>
<path d="M3085 5224 c54 -15 97 -22 89 -14 -5 5 -31 11 -59 14 -27 3 -41 3
-30 0z"/>
<path d="M3210 5200 c34 -11 60 -11 35 0 -11 5 -29 8 -40 8 -16 0 -15 -2 5 -8z"/>
<path d="M3308 5183 c6 -2 18 -2 25 0 6 3 1 5 -13 5 -14 0 -19 -2 -12 -5z"/>
<path d="M3358 5173 c7 -3 16 -2 19 1 4 3 -2 6 -13 5 -11 0 -14 -3 -6 -6z"/>
<path d="M3403 5163 c9 -2 25 -2 35 0 9 3 1 5 -18 5 -19 0 -27 -2 -17 -5z"/>
<path d="M3468 5153 c6 -2 18 -2 25 0 6 3 1 5 -13 5 -14 0 -19 -2 -12 -5z"/>
<path d="M3518 5143 c6 -2 18 -2 25 0 6 3 1 5 -13 5 -14 0 -19 -2 -12 -5z"/>
<path d="M3568 5138 c6 -6 18 -8 28 -6 14 3 12 5 -9 10 -19 3 -25 2 -19 -4z"/>
<path d="M3648 5123 c6 -2 18 -2 25 0 6 3 1 5 -13 5 -14 0 -19 -2 -12 -5z"/>
<path d="M3703 5113 c9 -2 23 -2 30 0 6 3 -1 5 -18 5 -16 0 -22 -2 -12 -5z"/>
<path d="M3758 5103 c6 -2 18 -2 25 0 6 3 1 5 -13 5 -14 0 -19 -2 -12 -5z"/>
<path d="M3800 5096 c0 -2 11 -6 25 -8 13 -3 22 -1 19 3 -5 9 -44 13 -44 5z"/>
<path d="M3868 5083 c7 -3 16 -2 19 1 4 3 -2 6 -13 5 -11 0 -14 -3 -6 -6z"/>
<path d="M3909 5077 c5 -5 21 -7 37 -5 27 3 26 4 -8 9 -22 3 -34 1 -29 -4z"/>
<path d="M3988 5063 c6 -2 18 -2 25 0 6 3 1 5 -13 5 -14 0 -19 -2 -12 -5z"/>
<path d="M4038 5053 c6 -2 18 -2 25 0 6 3 1 5 -13 5 -14 0 -19 -2 -12 -5z"/>
<path d="M4088 5043 c6 -2 18 -2 25 0 6 3 1 5 -13 5 -14 0 -19 -2 -12 -5z"/>
<path d="M3820 4620 l-65 -7 73 -1 c47 -1 71 2 67 8 -3 6 -7 9 -8 8 -1 -1 -31
-4 -67 -8z"/>
<path d="M3710 4608 c0 -3 9 -6 20 -5 11 1 20 5 20 9 0 3 -9 6 -20 5 -11 -1
-20 -5 -20 -9z"/>
<path d="M3497 4604 c-1 -2 -40 -4 -85 -5 -45 -1 -82 -6 -82 -11 0 -6 7 -7 16
-4 9 3 54 6 100 6 46 0 84 4 84 8 0 8 -26 12 -33 6z"/>
<path d="M3565 4602 c6 -7 128 -2 135 4 2 3 -28 4 -68 3 -40 -1 -70 -4 -67 -7z"/>
<path d="M3119 4585 c-2 -2 -41 -5 -87 -6 -45 -2 -82 -6 -82 -9 0 -6 162 -2
185 4 5 1 4 5 -2 9 -5 4 -12 5 -14 2z"/>
<path d="M3155 4580 c-3 -5 -2 -10 4 -10 5 0 13 5 16 10 3 6 2 10 -4 10 -5 0
-13 -4 -16 -10z"/>
<path d="M3190 4582 c0 -4 21 -6 48 -4 82 5 89 9 20 11 -38 0 -68 -2 -68 -7z"/>
<path d="M2824 4563 c7 -7 108 -5 115 3 2 2 -24 4 -59 4 -35 0 -60 -3 -56 -7z"/>
<path d="M2856 4385 c-105 -37 -164 -161 -130 -274 25 -86 120 -154 212 -153
57 2 141 42 170 82 134 181 -41 421 -252 345z m148 -65 c57 -28 88 -77 88
-140 0 -125 -125 -199 -234 -138 -111 63 -109 221 5 277 53 26 89 27 141 1z"/>
<path d="M2900 4255 l0 -45 -45 0 c-43 0 -45 -1 -45 -29 0 -33 15 -42 58 -35
30 5 31 4 34 -43 3 -46 4 -48 33 -48 26 0 30 4 31 30 3 65 1 63 49 61 45 -2
45 -2 45 31 0 32 -1 33 -44 33 -47 0 -53 6 -51 58 1 30 -1 32 -32 32 -32 0
-33 -1 -33 -45z"/>
<path d="M5406 5193 c53 -83 67 -103 71 -103 3 0 -3 12 -13 28 -53 82 -67 102
-71 102 -3 0 3 -12 13 -27z"/>
<path d="M5495 5056 c10 -14 19 -26 22 -26 7 0 -17 39 -28 46 -6 3 -3 -5 6
-20z"/>
<path d="M5525 5010 c16 -28 108 -165 118 -175 15 -15 1 9 -56 95 -47 71 -81
115 -62 80z"/>
<path d="M6151 4825 c1 -19 18 -51 18 -35 0 8 -4 22 -9 30 -5 8 -9 11 -9 5z"/>
<path d="M6172 4745 c0 -16 2 -22 5 -12 2 9 2 23 0 30 -3 6 -5 -1 -5 -18z"/>
<path d="M6181 4694 c0 -11 3 -14 6 -6 3 7 2 16 -1 19 -3 4 -6 -2 -5 -13z"/>
<path d="M6192 4650 c0 -14 2 -19 5 -12 2 6 2 18 0 25 -3 6 -5 1 -5 -13z"/>
<path d="M6201 4604 c0 -11 3 -14 6 -6 3 7 2 16 -1 19 -3 4 -6 -2 -5 -13z"/>
<path d="M6211 4564 c0 -11 3 -14 6 -6 3 7 2 16 -1 19 -3 4 -6 -2 -5 -13z"/>
<path d="M6222 4520 c0 -14 2 -19 5 -12 2 6 2 18 0 25 -3 6 -5 1 -5 -13z"/>
<path d="M1156 5094 c-15 -31 -26 -58 -23 -60 2 -3 10 9 17 26 11 26 26 35 53
31 4 0 7 4 7 10 0 6 -9 8 -21 4 -19 -6 -20 -5 -9 15 6 12 10 24 7 26 -2 2 -16
-21 -31 -52z"/>
<path d="M1115 5009 c-4 -6 -5 -12 -2 -15 2 -3 7 2 10 11 7 17 1 20 -8 4z"/>
<path d="M991 4934 c0 -11 3 -14 6 -6 3 7 2 16 -1 19 -3 4 -6 -2 -5 -13z"/>
<path d="M1071 4922 c-17 -31 -13 -40 5 -14 9 13 14 26 11 29 -3 2 -10 -4 -16
-15z"/>
<path d="M993 4845 c0 -22 2 -30 4 -17 2 12 2 30 0 40 -3 9 -5 -1 -4 -23z"/>
<path d="M1046 4863 c-6 -14 -5 -15 5 -6 7 7 10 15 7 18 -3 3 -9 -2 -12 -12z"/>
<path d="M1015 4799 c-6 -17 -9 -19 -17 -8 -7 11 -8 9 -5 -6 2 -11 -2 -32 -10
-47 -11 -22 -10 -27 3 -32 8 -3 12 -2 9 4 -3 5 3 31 15 56 11 26 18 49 16 51
-2 3 -7 -5 -11 -18z"/>
<path d="M956 4685 c-9 -26 -7 -32 5 -12 6 10 9 21 6 23 -2 3 -7 -2 -11 -11z"/>
<path d="M983 4675 c0 -8 4 -12 9 -9 5 3 6 10 3 15 -9 13 -12 11 -12 -6z"/>
<path d="M932 4630 c-18 -29 -15 -38 4 -12 9 13 14 25 12 27 -2 2 -9 -5 -16
-15z"/>
<path d="M983 4575 c0 -44 2 -61 4 -37 2 23 2 59 0 80 -2 20 -4 1 -4 -43z"/>
<path d="M876 4514 c-20 -42 -36 -79 -36 -83 1 -7 48 82 67 127 25 61 5 32
-31 -44z"/>
<path d="M970 4440 c0 -5 5 -10 10 -10 6 0 10 5 10 10 0 6 -4 10 -10 10 -5 0
-10 -4 -10 -10z"/>
<path d="M4310 4639 c0 -5 5 -7 10 -4 6 3 10 8 10 11 0 2 -4 4 -10 4 -5 0 -10
-5 -10 -11z"/>
<path d="M4546 4495 c-3 -9 -6 -24 -5 -33 0 -9 5 -4 10 12 9 32 6 48 -5 21z"/>
<path d="M4525 4410 c-4 -17 -5 -34 -2 -36 2 -3 7 10 11 27 8 42 0 50 -9 9z"/>
<path d="M3974 4381 c-112 -51 -163 -196 -108 -303 60 -116 224 -156 324 -80
52 39 68 62 85 117 24 80 9 147 -47 210 -62 72 -168 95 -254 56z m160 -61
c157 -76 90 -314 -84 -298 -160 16 -199 226 -55 298 51 25 88 25 139 0z"/>
<path d="M3940 4178 l0 -33 122 0 123 0 3 33 3 32 -125 0 -126 0 0 -32z"/>
<path d="M4502 4314 c-20 -77 -24 -99 -17 -92 8 8 35 121 30 126 -2 2 -8 -13
-13 -34z"/>
<path d="M4474 4193 c-3 -10 -10 -29 -14 -43 -17 -50 -21 -98 -9 -106 7 -4 9
-3 6 3 -3 5 2 44 12 86 10 43 16 77 14 77 -2 0 -6 -8 -9 -17z"/>
<path d="M4431 4024 c0 -11 3 -14 6 -6 3 7 2 16 -1 19 -3 4 -6 -2 -5 -13z"/>
<path d="M4451 4014 c0 -11 3 -14 6 -6 3 7 2 16 -1 19 -3 4 -6 -2 -5 -13z"/>
<path d="M4416 3964 c-4 -20 -5 -38 -3 -40 3 -3 8 11 11 32 4 20 5 38 3 40 -3
3 -8 -11 -11 -32z"/>
<path d="M4401 3894 c0 -11 3 -14 6 -6 3 7 2 16 -1 19 -3 4 -6 -2 -5 -13z"/>
<path d="M3315 3212 c23 -20 72 -64 110 -97 38 -33 92 -80 120 -105 28 -25 79
-70 115 -100 35 -30 83 -73 107 -94 24 -21 46 -37 48 -34 3 3 -35 40 -85 82
-49 43 -96 83 -102 89 -56 53 -340 297 -345 297 -5 0 10 -17 32 -38z"/>
<path d="M957 3915 c-4 -8 -3 -16 1 -19 4 -3 9 4 9 15 2 23 -3 25 -10 4z"/>
<path d="M959 3878 c-5 -19 -8 -50 -4 -46 7 7 15 48 9 48 -2 0 -4 -1 -5 -2z"/>
<path d="M951 3644 c0 -11 3 -14 6 -6 3 7 2 16 -1 19 -3 4 -6 -2 -5 -13z"/>
<path d="M940 3581 c0 -6 4 -13 10 -16 6 -3 7 1 4 9 -7 18 -14 21 -14 7z"/>
<path d="M5740 3472 c0 -5 7 -15 15 -22 8 -7 15 -8 15 -2 0 5 -7 15 -15 22 -8
7 -15 8 -15 2z"/>
<path d="M2255 3064 c75 -20 88 -23 79 -14 -5 5 -29 11 -54 14 -25 3 -36 3
-25 0z"/>
<path d="M5835 2855 l-50 -14 45 6 c25 3 49 9 55 14 5 5 7 9 5 8 -3 0 -27 -7
-55 -14z"/>
<path d="M5715 2835 l-60 -14 55 6 c30 3 59 9 65 14 5 5 7 9 5 8 -3 -1 -32 -7
-65 -14z"/>
<path d="M5570 2810 c-17 -6 -9 -7 25 -3 28 3 52 7 54 9 8 7 -54 2 -79 -6z"/>
<path d="M5515 2800 c-16 -7 -17 -9 -3 -9 9 -1 20 4 23 9 7 11 7 11 -20 0z"/>
<path d="M5450 2790 l-35 -7 38 -2 c20 0 37 4 37 9 0 6 -1 9 -2 9 -2 -1 -19
-5 -38 -9z"/>
<path d="M4765 2675 c-33 -7 -51 -13 -40 -13 11 -1 49 5 85 12 36 8 54 14 40
14 -14 0 -52 -6 -85 -13z"/>
<path d="M6046 2103 c-6 -14 -5 -15 5 -6 7 7 10 15 7 18 -3 3 -9 -2 -12 -12z"/>
<path d="M6006 2003 c-6 -14 -5 -15 5 -6 7 7 10 15 7 18 -3 3 -9 -2 -12 -12z"/>
<path d="M5971 1923 c-10 -26 -10 -27 4 -9 8 11 15 23 15 28 0 15 -7 8 -19
-19z"/>
<path d="M5925 1809 c-4 -6 -5 -12 -2 -15 2 -3 7 2 10 11 7 17 1 20 -8 4z"/>
<path d="M5905 1749 c-4 -6 -5 -12 -2 -15 2 -3 7 2 10 11 7 17 1 20 -8 4z"/>
<path d="M4481 2018 c-1 -29 0 -50 2 -48 8 9 15 100 8 100 -4 0 -8 -24 -10
-52z"/>
<path d="M3970 1975 c-7 -8 -8 -15 -2 -15 5 0 15 7 22 15 7 8 8 15 2 15 -5 0
-15 -7 -22 -15z"/>
<path d="M4472 1953 c2 -7 -9 -129 -17 -198 -2 -16 -6 -55 -10 -85 -3 -30 -14
-143 -25 -250 -21 -204 -23 -226 -16 -219 2 2 14 101 26 219 12 118 23 226 25
240 2 14 7 61 11 105 3 44 10 104 14 133 4 29 3 55 -2 58 -5 3 -8 2 -6 -3z"/>
<path d="M3851 1568 c-13 -57 -25 -113 -27 -125 -14 -70 -86 -378 -90 -385 -3
-4 -1 -8 4 -8 7 0 61 221 96 396 16 77 48 209 52 216 3 4 1 8 -4 8 -5 0 -19
-46 -31 -102z"/>
<path d="M4947 1259 c-37 -43 -66 -79 -64 -79 3 0 37 36 77 80 40 44 68 80 64
79 -5 0 -40 -36 -77 -80z"/>
<path d="M4844 1138 l-29 -33 33 29 c30 28 37 36 29 36 -2 0 -16 -15 -33 -32z"/>
<path d="M4784 1068 l-29 -33 33 29 c30 28 37 36 29 36 -2 0 -16 -15 -33 -32z"/>
<path d="M5770 2195 c-18 -19 -32 -36 -29 -38 2 -2 19 14 38 35 42 48 36 50
-9 3z"/>
<path d="M5657 2068 c-37 -43 -62 -75 -55 -72 15 7 132 144 127 148 -2 1 -35
-33 -72 -76z"/>
<path d="M5549 1943 l-34 -38 38 34 c34 33 42 41 34 41 -2 0 -19 -17 -38 -37z"/>
<path d="M5484 1868 l-29 -33 33 29 c17 17 32 31 32 33 0 8 -8 1 -36 -29z"/>
<path d="M5377 1749 c-37 -43 -66 -79 -64 -79 3 0 37 36 77 80 40 44 68 80 64
79 -5 0 -40 -36 -77 -80z"/>
<path d="M5285 1646 c-6 -8 -25 -33 -43 -55 -49 -60 -34 -50 22 14 26 30 43
55 39 55 -4 0 -13 -6 -18 -14z"/>
<path d="M4358 825 c-2 -19 0 -35 4 -35 4 0 8 16 8 35 0 19 -2 35 -4 35 -2 0
-6 -16 -8 -35z"/>
<path d="M4495 740 c-16 -16 -27 -31 -24 -33 2 -2 17 11 32 30 36 41 31 43 -8
3z"/>
<path d="M4435 674 c-9 -15 -12 -23 -6 -20 11 7 35 46 28 46 -3 0 -12 -12 -22
-26z"/>
<path d="M4040 6752 c8 -6 155 -66 325 -135 171 -69 438 -178 595 -242 157
-64 356 -144 442 -178 87 -34 158 -66 158 -71 0 -7 -53 -4 -155 9 -16 2 -59 7
-95 10 -36 4 -89 11 -117 15 -29 3 -53 3 -53 0 0 -4 30 -11 68 -15 37 -4 74
-8 82 -10 47 -8 251 -28 256 -24 4 2 11 -12 18 -31 16 -49 65 -80 110 -70 35
8 35 8 88 -74 30 -44 139 -207 243 -361 103 -154 276 -410 384 -570 107 -159
220 -327 250 -372 31 -45 58 -80 60 -77 3 2 -10 25 -27 50 -18 25 -74 107
-124 182 -51 75 -96 142 -101 147 -4 6 -23 33 -40 60 -57 87 -421 630 -430
640 -25 30 -226 339 -223 343 2 2 24 -18 48 -44 23 -26 50 -54 59 -63 8 -9 74
-79 145 -156 71 -77 152 -165 180 -195 108 -115 116 -127 105 -149 -34 -62 17
-147 84 -139 l34 4 92 -203 c51 -112 94 -202 96 -200 2 2 -38 95 -89 206 -80
177 -90 204 -76 212 27 15 42 75 28 109 -21 52 -83 75 -131 50 -16 -9 -24 -6
-45 17 -14 15 -66 71 -114 123 -48 52 -101 109 -116 126 -40 41 -221 238 -277
299 -45 49 -55 69 -39 79 4 2 9 20 10 40 2 27 -4 43 -26 67 -37 42 -89 45
-130 7 l-27 -25 -170 68 c-93 37 -186 75 -205 83 -19 8 -107 44 -195 79 -88
36 -335 136 -550 222 -214 87 -397 159 -405 162 -13 4 -13 3 0 -5z m1709 -766
c-3 -3 -11 5 -18 17 -13 21 -12 21 5 5 10 -10 16 -20 13 -22z"/>
<path d="M1520 6105 c-41 -41 -72 -75 -69 -75 2 0 38 34 79 75 41 41 72 75 69
75 -2 0 -38 -34 -79 -75z"/>
<path d="M5090 5966 c30 -31 64 -62 75 -68 11 -6 18 -9 15 -6 -3 2 -36 33 -75
68 l-70 64 55 -58z"/>
<path d="M1355 5928 l-70 -73 73 70 c39 38 72 71 72 72 0 8 -11 -2 -75 -69z"/>
<path d="M5265 5800 c33 -33 62 -60 64 -60 3 0 -21 27 -54 60 -33 33 -62 60
-64 60 -3 0 21 -27 54 -60z"/>
<path d="M1210 5775 l-54 -60 59 57 c32 32 57 59 55 61 -3 1 -30 -24 -60 -58z"/>
<path d="M1135 5699 c-4 -6 -5 -12 -2 -15 2 -3 7 2 10 11 7 17 1 20 -8 4z"/>
<path d="M1050 5605 c-35 -35 -62 -66 -59 -67 2 -2 33 27 68 64 82 86 76 89
-9 3z"/>
<path d="M954 5508 l-19 -23 23 19 c21 18 27 26 19 26 -2 0 -12 -10 -23 -22z"/>
<path d="M916 5463 c-6 -14 -5 -15 5 -6 7 7 10 15 7 18 -3 3 -9 -2 -12 -12z"/>
<path d="M864 5408 l-29 -33 33 29 c30 28 37 36 29 36 -2 0 -16 -15 -33 -32z"/>
<path d="M705 5238 l-70 -73 73 70 c39 38 72 71 72 72 0 8 -11 -2 -75 -69z"/>
<path d="M605 5140 c-3 -6 1 -7 9 -4 18 7 21 14 7 14 -6 0 -13 -4 -16 -10z"/>
<path d="M6601 4815 c0 -5 6 -21 14 -35 8 -14 14 -20 14 -15 0 6 -6 21 -14 35
-8 14 -14 21 -14 15z"/>
<path d="M6631 4748 c-1 -11 71 -159 75 -155 2 2 -14 39 -35 83 -22 43 -40 76
-40 72z"/>
<path d="M6241 4434 c0 -11 3 -14 6 -6 3 7 2 16 -1 19 -3 4 -6 -2 -5 -13z"/>
<path d="M6251 4380 c0 -8 4 -22 9 -30 12 -18 12 -2 0 25 -6 13 -9 15 -9 5z"/>
<path d="M6811 4182 c2 -24 6 -45 10 -47 7 -5 0 77 -8 85 -2 2 -3 -15 -2 -38z"/>
<path d="M6820 4106 c0 -8 4 -17 9 -20 5 -4 7 3 4 14 -6 23 -13 26 -13 6z"/>
<path d="M6670 4108 c0 -3 -29 -92 -65 -198 -37 -106 -64 -194 -62 -196 2 -2
34 84 71 192 37 108 64 199 61 202 -3 3 -5 3 -5 0z"/>
<path d="M6829 4038 c4 -28 6 -29 9 -9 2 13 0 27 -5 32 -6 6 -7 -3 -4 -23z"/>
<path d="M289 3993 c-2 -27 -14 -105 -24 -163 -3 -14 -7 -43 -11 -65 -3 -22
-11 -78 -19 -125 -8 -47 -17 -103 -20 -125 -13 -86 -17 -110 -22 -117 -2 -5 0
-8 5 -8 5 0 15 35 22 78 7 42 14 86 16 97 9 57 34 216 40 260 3 28 12 80 19
118 7 37 9 67 4 67 -5 0 -10 -8 -10 -17z"/>
<path d="M6840 3952 l5 -47 3 39 c2 21 0 42 -5 47 -4 4 -6 -13 -3 -39z"/>
<path d="M6855 3840 c4 -36 9 -67 12 -70 3 -3 2 24 -1 60 -4 35 -10 67 -13 70
-3 3 -2 -24 2 -60z"/>
<path d="M422 3580 c-18 -29 -15 -38 4 -12 9 13 14 25 12 27 -2 2 -9 -5 -16
-15z"/>
<path d="M382 3495 c-30 -62 -27 -71 4 -12 14 27 24 51 22 53 -3 2 -14 -17
-26 -41z"/>
<path d="M335 3399 c-9 -17 -15 -33 -13 -35 3 -2 12 12 21 31 21 43 13 47 -8
4z"/>
<path d="M2830 1000 c-12 -7 -10 -9 7 -7 12 0 19 5 17 9 -6 10 -6 10 -24 -2z"/>
<path d="M2440 990 c-23 -7 -23 -8 -3 -9 12 -1 25 4 28 9 3 6 5 10 3 9 -2 -1
-14 -5 -28 -9z"/>
<path d="M2535 990 c-3 -5 -1 -10 4 -10 6 0 11 5 11 10 0 6 -2 10 -4 10 -3 0
-8 -4 -11 -10z"/>
<path d="M2588 993 c7 -3 16 -2 19 1 4 3 -2 6 -13 5 -11 0 -14 -3 -6 -6z"/>
<path d="M2678 993 c18 -2 45 -2 60 0 15 2 0 4 -33 4 -33 0 -45 -2 -27 -4z"/>
<path d="M2135 980 c-3 -5 -1 -10 4 -10 6 0 11 5 11 10 0 6 -2 10 -4 10 -3 0
-8 -4 -11 -10z"/>
<path d="M2165 980 c-3 -6 1 -7 9 -4 18 7 21 14 7 14 -6 0 -13 -4 -16 -10z"/>
<path d="M2208 983 c7 -3 16 -2 19 1 4 3 -2 6 -13 5 -11 0 -14 -3 -6 -6z"/>
<path d="M2288 983 c23 -2 61 -2 85 0 23 2 4 4 -43 4 -47 0 -66 -2 -42 -4z"/>
<path d="M2108 853 c7 -3 16 -2 19 1 4 3 -2 6 -13 5 -11 0 -14 -3 -6 -6z"/>
<path d="M2185 830 c27 -12 43 -12 25 0 -8 5 -22 9 -30 9 -10 0 -8 -3 5 -9z"/>
<path d="M1580 816 c0 -3 9 -10 20 -16 11 -6 20 -8 20 -6 0 3 -9 10 -20 16
-11 6 -20 8 -20 6z"/>
<path d="M2275 800 c11 -5 27 -9 35 -9 9 0 8 4 -5 9 -11 5 -27 9 -35 9 -9 0
-8 -4 5 -9z"/>
<path d="M2340 780 c8 -5 22 -9 30 -9 10 0 8 3 -5 9 -27 12 -43 12 -25 0z"/>
<path d="M2435 750 c28 -10 57 -18 65 -18 8 0 -7 8 -35 18 -27 10 -57 18 -65
18 -8 0 8 -8 35 -18z"/>
<path d="M1890 721 c0 -3 14 -7 30 -7 17 -1 30 1 30 5 0 3 -13 7 -30 7 -16 1
-30 -1 -30 -5z"/>
<path d="M1960 718 c0 -4 47 -8 105 -10 58 -2 105 0 105 4 0 4 -47 8 -105 10
-58 2 -105 0 -105 -4z"/>
<path d="M2535 720 c11 -5 27 -9 35 -9 9 0 8 4 -5 9 -11 5 -27 9 -35 9 -9 0
-8 -4 5 -9z"/>
<path d="M2185 710 c3 -4 41 -8 86 -9 45 -1 85 -4 89 -6 3 -2 12 0 20 6 10 6
-14 9 -70 10 -47 0 -95 2 -107 3 -12 1 -20 -1 -18 -4z"/>
<path d="M2410 699 c0 -3 48 -6 108 -7 59 -2 120 -5 136 -8 44 -9 256 -10 256
-1 0 4 -51 7 -112 8 -62 0 -122 2 -133 5 -32 6 -255 10 -255 3z"/>
<path d="M2946 678 c3 -4 9 -8 15 -8 5 0 9 4 9 8 0 5 -7 9 -15 9 -8 0 -12 -4
-9 -9z"/>
<path d="M2985 680 c-3 -5 -1 -10 4 -10 6 0 11 5 11 10 0 6 -2 10 -4 10 -3 0
-8 -4 -11 -10z"/>
<path d="M2718 663 c7 -3 16 -2 19 1 4 3 -2 6 -13 5 -11 0 -14 -3 -6 -6z"/>
<path d="M2850 624 c57 -18 106 -32 108 -29 4 4 -190 66 -204 64 -5 -1 38 -16
96 -35z"/>
<path d="M2978 583 c7 -3 16 -2 19 1 4 3 -2 6 -13 5 -11 0 -14 -3 -6 -6z"/>
<path d="M3010 576 c0 -2 7 -7 16 -10 8 -3 12 -2 9 4 -6 10 -25 14 -25 6z"/>
<path d="M3060 560 c8 -5 20 -10 25 -10 6 0 3 5 -5 10 -8 5 -19 10 -25 10 -5
0 -3 -5 5 -10z"/>
<path d="M3130 535 c19 -7 42 -13 50 -13 8 0 -1 6 -20 13 -19 7 -42 13 -50 13
-8 0 1 -6 20 -13z"/>
<path d="M3245 500 c11 -5 27 -9 35 -9 9 0 8 4 -5 9 -11 5 -27 9 -35 9 -9 0
-8 -4 5 -9z"/>
<path d="M3823 492 c-62 -9 -113 -19 -113 -22 0 -4 39 -1 88 6 48 8 102 14
120 16 17 1 32 6 32 10 0 4 -3 7 -7 7 -5 -1 -59 -9 -120 -17z"/>
<path d="M3605 459 c-20 -5 -9 -6 30 -2 33 3 62 7 64 9 8 7 -63 2 -94 -7z"/>
<path d="M4008 234 c-2 -1 -59 -5 -128 -9 -69 -3 -136 -8 -150 -10 -14 -2 -81
-7 -150 -10 -69 -4 -141 -8 -160 -10 -19 -2 -89 -6 -155 -10 -66 -4 -131 -9
-145 -10 -14 -2 -51 -3 -82 -4 -34 -1 -58 -5 -58 -12 0 -5 3 -8 8 -6 4 3 66 8
137 12 72 4 146 8 165 10 19 2 87 6 150 10 63 4 138 8 165 10 28 2 104 7 170
11 66 4 136 8 155 10 19 1 52 2 73 3 20 1 37 5 37 9 0 8 -26 12 -32 6z"/>
<path d="M2900 160 l-55 -7 63 0 c34 0 62 4 62 9 0 4 -3 7 -7 6 -5 -1 -33 -4
-63 -8z"/>
</g>
</svg>
