<?xml version="1.0" standalone="no"?>
<!DOCTYPE svg PUBLIC "-//W3C//DTD SVG 20010904//EN"
 "http://www.w3.org/TR/2001/REC-SVG-20010904/DTD/svg10.dtd">
<svg version="1.0" xmlns="http://www.w3.org/2000/svg"
 width="880.000000pt" height="880.000000pt" viewBox="0 0 880.000000 880.000000"
 preserveAspectRatio="xMidYMid meet">
<metadata>
Created by potrace 1.14, written by Peter Selinger 2001-2017
</metadata>
<g transform="translate(0.000000,880.000000) scale(0.100000,-0.100000)"
fill="#000000" stroke="none">
<path d="M257 7809 c-58 -14 -111 -44 -156 -90 -43 -44 -96 -143 -86 -159 3
-6 1 -10 -4 -10 -8 0 -10 -946 -8 -3157 l2 -3158 27 -57 c83 -179 276 -255
441 -175 31 16 63 34 70 40 7 7 46 41 87 76 41 36 80 69 85 75 6 6 37 34 70
61 33 28 67 57 76 65 8 8 42 38 75 66 32 29 100 87 149 130 50 44 117 102 149
129 33 28 64 55 70 61 6 5 45 39 86 75 41 35 82 71 91 79 8 8 35 31 60 51 24
21 56 48 70 60 37 33 139 124 169 149 14 12 52 45 84 73 67 59 75 66 141 122
27 22 60 51 75 65 16 14 50 44 76 67 27 22 61 52 75 65 14 12 47 41 73 63 26
22 60 51 75 65 29 26 118 103 161 139 14 12 36 31 49 44 13 12 38 32 54 45 17
12 27 22 21 22 -5 1 1 6 13 13 11 7 41 30 66 52 24 22 70 63 103 90 32 28 71
62 87 77 16 15 46 41 67 58 22 18 50 42 63 53 49 45 110 98 231 202 32 28 68
59 80 70 13 11 51 45 86 75 35 30 77 66 92 80 15 14 34 30 41 35 36 30 174
150 188 164 9 9 38 34 65 56 128 104 224 233 240 323 3 14 8 30 11 35 11 17
12 161 2 212 -14 68 -14 70 -45 140 -33 77 -89 141 -234 265 -41 36 -80 70
-86 75 -6 6 -35 30 -64 55 -29 25 -64 56 -79 68 -28 26 -133 118 -161 142 -10
8 -40 34 -66 57 -27 22 -67 58 -89 78 -22 20 -57 51 -78 68 -21 18 -49 41 -61
52 -12 11 -51 45 -86 75 -35 30 -71 62 -79 70 -9 9 -45 40 -81 70 -36 30 -70
60 -76 65 -6 6 -42 37 -79 70 -38 33 -73 65 -79 70 -6 6 -40 35 -76 65 -36 30
-74 64 -85 75 -12 11 -43 38 -69 60 -27 22 -62 52 -78 67 -16 15 -47 42 -69
60 -22 18 -53 44 -68 58 -29 28 -137 122 -190 166 -18 16 -43 38 -55 49 -12
11 -39 35 -61 54 -114 97 -162 139 -192 168 -18 18 -33 30 -33 26 0 -3 -8 3
-17 13 -10 11 -52 48 -93 84 -41 36 -80 70 -86 76 -6 5 -35 30 -64 55 -28 24
-62 53 -74 64 -19 17 -87 77 -170 148 -12 10 -43 38 -71 62 -27 24 -59 52 -71
62 -12 10 -49 43 -84 73 -35 30 -72 63 -84 73 -35 30 -93 80 -134 117 -21 19
-63 55 -92 80 -29 25 -62 53 -74 64 -95 84 -199 112 -309 85z"/>
<path d="M8420 7809 c-88 -18 -117 -31 -168 -78 -18 -17 -35 -31 -38 -31 -2 0
-12 -8 -22 -17 -75 -72 -121 -110 -126 -105 -3 3 -6 1 -6 -5 0 -5 -34 -39 -76
-74 -42 -35 -88 -75 -103 -89 -14 -14 -58 -52 -96 -85 -39 -33 -79 -67 -90
-77 -11 -10 -32 -28 -46 -40 -14 -13 -50 -44 -80 -70 -30 -25 -65 -56 -79 -68
-14 -12 -49 -43 -79 -68 -30 -26 -59 -52 -65 -57 -6 -6 -78 -69 -161 -140 -82
-71 -155 -134 -161 -140 -6 -5 -38 -33 -70 -61 -32 -28 -95 -83 -139 -121 -44
-38 -90 -78 -103 -89 -13 -10 -38 -32 -56 -49 -18 -16 -46 -41 -62 -54 -26
-22 -65 -56 -240 -208 -90 -79 -98 -85 -148 -128 -26 -22 -62 -53 -80 -70 -18
-16 -57 -50 -86 -75 -29 -25 -58 -50 -64 -55 -6 -6 -63 -55 -126 -110 -63 -55
-120 -104 -126 -110 -6 -5 -32 -28 -58 -50 -27 -22 -58 -49 -70 -60 -12 -11
-48 -42 -80 -70 -32 -27 -77 -67 -100 -87 -22 -20 -52 -46 -66 -58 -14 -11
-47 -40 -75 -64 -27 -24 -88 -77 -135 -117 -47 -41 -87 -76 -90 -79 -3 -3 -50
-44 -105 -92 -106 -92 -124 -110 -168 -174 -91 -134 -109 -332 -45 -494 39
-100 87 -159 224 -277 34 -29 74 -65 91 -80 17 -15 42 -37 54 -47 25 -21 161
-138 169 -146 8 -8 142 -125 270 -235 165 -143 169 -146 211 -185 20 -19 50
-45 66 -57 15 -12 45 -38 65 -57 20 -18 39 -31 42 -28 3 3 6 0 6 -5 0 -6 37
-42 82 -80 45 -37 96 -81 113 -98 17 -16 43 -39 57 -50 24 -18 126 -108 187
-164 14 -13 43 -37 64 -55 21 -17 51 -42 66 -56 15 -14 51 -45 80 -70 30 -25
63 -54 75 -65 11 -11 53 -47 91 -80 67 -57 125 -108 149 -130 6 -6 61 -53 121
-105 61 -52 112 -97 115 -100 3 -3 39 -34 80 -70 41 -36 80 -70 86 -76 6 -5
35 -30 64 -55 51 -43 89 -76 140 -122 14 -13 59 -52 100 -87 41 -36 80 -69 86
-75 6 -5 35 -31 65 -57 30 -25 63 -54 75 -65 12 -10 50 -43 84 -73 35 -30 68
-59 74 -65 6 -5 43 -37 81 -69 39 -33 75 -64 80 -70 6 -6 37 -35 71 -63 88
-75 140 -96 244 -97 74 -1 92 3 143 27 91 45 151 118 184 222 10 32 13 679 13
3166 0 2887 -1 3129 -17 3175 -44 132 -147 222 -275 242 -29 4 -69 5 -88 1z"/>
</g>
</svg>
